<?xml version="1.0" encoding="UTF-8"?>
<svg xmlns="http://www.w3.org/2000/svg" xmlns:xlink="http://www.w3.org/1999/xlink" width="0" height="0">
<defs>
<symbol viewBox="0 0 16 16" fill="none" id="Youtube">
<path d="M8.00293 2C8.04518 2.00019 11.233 2.0208 13.3447 2.17285L13.3721 2.17578C13.3959 2.17892 13.4231 2.18228 13.4521 2.18555C13.8032 2.22509 14.5323 2.30807 15.1758 2.98633C15.7327 3.56327 15.8683 4.69767 15.8818 4.8252V4.83203C15.8866 4.88522 15.9999 6.14877 16 7.41699V8.60254C16 9.8683 15.887 11.1289 15.8818 11.1865L15.8809 11.2031C15.8652 11.3277 15.7111 12.4379 15.1807 13.0088C14.5442 13.7021 13.8264 13.7772 13.4814 13.8135C13.4485 13.8169 13.4183 13.8207 13.3916 13.8242L13.3633 13.8271C11.2534 13.979 8.07034 13.9998 8.02246 14H8.0127C7.85036 13.9977 4.02143 13.9412 2.7998 13.8262L2.7627 13.8203C2.72455 13.8137 2.66845 13.8081 2.60352 13.8008C2.1919 13.7541 1.42651 13.6666 0.821289 13.0107C0.267516 12.434 0.131893 11.3222 0.118164 11.1953L0.117188 11.1865C0.111799 11.1263 1.29346e-05 9.8669 0 8.60254V7.41699C0 6.14877 0.112427 4.8851 0.117188 4.83203L0.119141 4.81641C0.134888 4.69166 0.288944 3.58151 0.819336 3.01074C1.46474 2.30777 2.18624 2.2252 2.5332 2.18555C2.56042 2.1824 2.58569 2.1788 2.6084 2.17578L2.63672 2.17285C4.7697 2.02066 7.96134 2.00015 7.99707 2H8.00293ZM6.83008 5.60645C6.61611 5.49968 6.363 5.50369 6.15332 5.61719C5.94342 5.7309 5.81836 5.93237 5.81836 6.15527V9.84473C5.81836 10.0666 5.94291 10.267 6.15137 10.3809C6.26026 10.4403 6.38097 10.4707 6.50195 10.4707C6.61276 10.4707 6.72398 10.4458 6.82617 10.3955L10.5488 8.56641C10.7697 8.4578 10.908 8.24784 10.9092 8.01855C10.9101 7.7892 10.774 7.57797 10.5537 7.46777L6.83008 5.60645Z" fill="currentColor"></path>
</symbol>
<symbol viewBox="0 0 16 16" fill="none" id="Whatsapp">
<path d="M4.34978 13.2518L4.5879 13.3924C5.58844 13.9835 6.73555 14.2961 7.90534 14.2968H7.90789C11.5004 14.2968 14.4243 11.3866 14.4257 7.80979C14.4262 6.07634 13.749 4.44659 12.5184 3.22035C11.2877 1.99434 9.65144 1.31869 7.91022 1.31797C4.31497 1.31797 1.39108 4.22771 1.38972 7.80448C1.38925 9.03015 1.73365 10.2239 2.3862 11.2566L2.5413 11.502L1.88269 13.8958L4.34978 13.2518ZM0 15.75L1.1125 11.7058C0.426298 10.5222 0.0653046 9.17955 0.0658697 7.80411C0.0675424 3.50093 3.58516 0 7.90805 0C10.0057 0.000900154 11.9746 0.813649 13.4552 2.28887C14.9356 3.76406 15.7507 5.72498 15.75 7.81041C15.7482 12.1134 12.2298 15.615 7.90805 15.615C7.90773 15.615 7.90821 15.615 7.90805 15.615H7.9047C6.59228 15.6145 5.30269 15.2868 4.15732 14.6649L0 15.75Z" fill="currentColor"></path>
<path d="M0.0658703 7.80435C0.0653956 9.17976 0.426392 10.5226 1.1126 11.7061L0 15.75L4.15723 14.6648C5.30268 15.2867 6.59221 15.6144 7.90463 15.615H7.90798C12.2298 15.615 15.7482 12.1134 15.75 7.8104C15.7507 5.72486 14.9356 3.76399 13.4552 2.28887C11.9745 0.81374 10.0057 0.000900153 7.90798 0C3.58529 0 0.0675467 3.50092 0.0657383 7.8041M2.5414 11.5022L2.38622 11.2568C1.73367 10.2239 1.38926 9.03025 1.38974 7.80469C1.39116 4.22816 4.31501 1.31819 7.91029 1.31819C9.65134 1.31886 11.2877 1.99458 12.5185 3.22057C13.7492 4.44664 14.4264 6.07653 14.4259 7.80977C14.4243 11.3865 11.5004 14.2967 7.90782 14.2967H7.90527C6.7355 14.2961 5.58829 13.9835 4.58781 13.3924L4.34969 13.2519L1.88261 13.8958L2.5414 11.5022ZM7.90798 15.615H7.90806H7.90798C7.9079 15.615 7.90782 15.615 7.90798 15.615Z" fill="currentColor"></path>
<path fill-rule="evenodd" clip-rule="evenodd" d="M5.93966 4.30336C5.79449 3.95543 5.64175 3.94847 5.50368 3.94235C5.39069 3.93717 5.26145 3.9375 5.13237 3.9375C5.00312 3.9375 4.79321 3.98979 4.61571 4.19886C4.43806 4.40793 3.9375 4.91331 3.9375 5.94115C3.9375 6.96908 4.6319 7.96231 4.72864 8.10183C4.82555 8.2411 6.06908 10.4179 8.03835 11.2552C9.67512 11.9511 10.0082 11.8127 10.3634 11.7778C10.7187 11.7431 11.5098 11.2726 11.6712 10.7848C11.8327 10.297 11.8327 9.87888 11.7843 9.79156C11.7359 9.70449 11.6066 9.6522 11.4129 9.5478C11.2191 9.44331 10.2665 8.93785 10.0889 8.86813C9.91128 8.79849 9.78211 8.76371 9.65287 8.97287C9.52371 9.18177 9.15263 9.65221 9.03955 9.79156C8.92655 9.93117 8.81348 9.9486 8.61973 9.84411C8.4259 9.73927 7.80185 9.51888 7.06157 8.80725C6.48555 8.25351 6.09671 7.56966 5.98363 7.36049C5.87063 7.15159 5.97156 7.03843 6.06871 6.93426C6.15577 6.84065 6.26253 6.69033 6.35945 6.56841C6.45612 6.4464 6.48837 6.35934 6.55296 6.21998C6.61762 6.08054 6.58529 5.95853 6.53687 5.85403C6.48837 5.74954 6.11184 4.71641 5.93955 4.30329" fill="currentColor"></path>
</symbol>
<symbol preserveAspectRatio="none" viewBox="0 0 198 14" fill="none" id="Wave">
<path d="M195.721 6.20269C190.574 6.20269 188.144 4.95531 185.33 3.50644C182.124 1.86468 178.493 0 171.567 0C164.642 0 160.997 1.86896 157.791 3.51501C154.982 4.9553 152.557 6.20269 147.409 6.20269C142.262 6.20269 139.833 4.9553 137.023 3.51072C133.817 1.86467 130.181 0 123.243 0C123.227 0 123.21 0 123.189 0C123.172 0 123.156 0 123.135 0C116.197 0 112.565 1.86896 109.359 3.51501C106.558 4.95101 104.141 6.19412 99.0271 6.20269C93.9176 6.19412 91.4922 4.95101 88.6828 3.51072C85.4768 1.86467 81.8366 0 74.9028 0C74.8861 0 74.8694 0 74.8527 0C74.836 0 74.8193 0 74.8026 0C67.8646 0 64.2328 1.86896 61.0268 3.51501C58.2174 4.95959 55.7878 6.20269 50.6407 6.20269C45.4935 6.20269 43.0598 4.9553 40.2462 3.51072C37.0402 1.86467 33.4001 0 26.4662 0C19.5324 0 15.8881 1.86467 12.6821 3.51501C9.86848 4.95959 7.43893 6.20269 2.28762 6.20269H0V14H2.28344C9.22561 14 12.8616 12.1353 16.0718 10.485C18.8854 9.04043 21.3149 7.79303 26.4621 7.79303C31.6092 7.79303 34.0388 9.04043 36.8524 10.485C39.6994 11.9467 42.8928 13.5799 48.4324 13.9271V13.9957H50.7158C57.658 13.9957 61.294 12.1311 64.5041 10.4807C67.3094 9.04042 69.7306 7.79732 74.8485 7.79303C79.9581 7.8016 82.3835 9.04471 85.1887 10.485C88.3947 12.1311 92.0307 14 98.9687 14C98.9854 14 99.0021 14 99.0188 14C99.0355 14 99.0522 14 99.0731 14C106.011 14 109.647 12.1311 112.853 10.485C115.654 9.049 118.075 7.80588 123.181 7.79731C128.29 7.80588 130.711 9.04899 133.513 10.4893C136.719 12.1353 140.35 14 147.284 14H149.568V13.9314C155.128 13.5885 158.326 11.951 161.185 10.485C163.995 9.04043 166.42 7.79303 171.563 7.79303C176.706 7.79303 179.136 9.04043 181.945 10.485C185.151 12.1311 188.783 13.9957 195.717 13.9957H198V6.19842H195.717L195.721 6.20269Z" fill="#9FBAC7"></path>
</symbol>
<symbol viewBox="0 0 93 12" fill="none" id="WaveXs">
<path d="M81.0039 3.00552C83.6462 4.24741 85.9278 5.3166 90.7614 5.3166L90.7575 5.31293H92.9019V11.9963H90.7575C84.2459 11.9963 80.8354 10.398 77.8246 8.98715C75.1863 7.74894 72.9047 6.67974 68.075 6.67974C63.2457 6.67974 60.968 7.7487 58.3301 8.98674L58.3292 8.98715C55.6438 10.2437 52.6409 11.6473 47.4192 11.9412V12H45.2748C38.7633 12 35.3526 10.4017 32.3419 8.99081C29.7114 7.75628 27.4377 6.69075 22.6393 6.6834C17.8482 6.69075 15.5743 7.75477 12.9462 8.98452L12.9406 8.98715L12.9352 8.98968C9.92576 10.4 6.51141 12 -0.000137798 12V5.3165C4.76537 5.30288 7.02983 4.24328 9.64734 3.01848L9.65934 3.01286L9.6702 3.00777C12.6783 1.59811 16.0885 0 22.5962 0H22.6471H22.6981C29.2135 0 32.6281 1.59829 35.6388 3.00919C38.2772 4.2474 40.5588 5.3166 45.3924 5.3166C50.2188 5.3166 52.4969 4.25062 55.1301 3.01845L55.1421 3.01286C58.1528 1.60196 61.5752 0 68.0789 0C74.5737 0 77.9839 1.59393 80.9916 2.99975L81.0039 3.00552Z" fill="white"></path>
</symbol>
<symbol viewBox="0 0 74 8" fill="none" id="WaveS">
<path d="M68.5117 2.00612C69.9164 2.8316 71.1311 3.5444 73.7047 3.5444V8H73.6421C70.1752 8 68.3593 6.93448 66.7563 5.99388C65.3557 5.17085 64.1451 4.4605 61.5904 4.4556C59.0395 4.4605 57.8288 5.16985 56.4295 5.98968L56.4265 5.99143L56.4236 5.99312C54.8213 6.93331 53.0035 8 49.5365 8H49.5094H49.4843C46.0174 8 44.1995 6.93331 42.5972 5.99312L42.5944 5.99143C41.1917 5.16841 39.979 4.45806 37.4243 4.45316C34.8653 4.45561 33.6547 5.16596 32.2521 5.98898C30.647 6.93203 28.829 7.99756 25.3579 7.99756H24.2162V7.95836C21.4464 7.75996 19.8497 6.8267 18.4262 5.99143C17.0194 5.16596 15.8046 4.45316 13.231 4.45316C10.6575 4.45316 9.44269 5.16596 8.03588 5.99143C6.43079 6.93448 4.61281 8 1.14172 8H0V3.5444H1.14381C3.71947 3.5444 4.93424 2.83405 6.34104 2.00858C7.94405 1.06553 9.76621 0 13.2331 0C16.7 0 18.5201 1.06552 20.1231 2.00612C21.5299 2.8316 22.7468 3.5444 25.3203 3.5444C27.8939 3.5444 29.1087 2.83405 30.5134 2.00858L30.5192 2.00519C32.1208 1.06541 33.9365 0 37.4013 0H37.4263H37.4514C40.9183 0 42.7384 1.06552 44.3414 2.00612C45.7461 2.82915 46.9588 3.5395 49.5136 3.5444C52.0665 3.53951 53.2753 2.83131 54.6731 2.01232L54.6795 2.00858L54.6853 2.00519C56.2869 1.06541 58.1026 0 61.5674 0H61.5945H61.6217C65.0907 0 66.9087 1.06552 68.5117 2.00612Z" fill="#9FBAC7"></path>
</symbol>
<symbol viewBox="0 0 14 14" fill="none" id="Viber">
<path d="M11.7384 1.34141C11.4077 1.03545 10.0847 0.0275703 7.108 0.00957249C7.108 0.00957249 3.60907 -0.206403 1.90313 1.4134C0.945707 2.40328 0.614962 3.82511 0.580146 5.60689C0.545331 7.38867 0.493113 10.7183 3.60907 11.6362V13.022C3.60907 13.022 3.59167 13.5799 3.93982 13.6879C4.37501 13.8319 4.61871 13.3999 5.03649 12.95C5.26279 12.698 5.57613 12.3381 5.80243 12.0501C7.92616 12.2301 9.56247 11.8161 9.75396 11.7441C10.1891 11.6002 12.6088 11.2762 13.0092 7.9466C13.427 4.49103 12.8351 2.31329 11.7384 1.34141ZM12.104 7.67664C11.7732 10.4663 9.80618 10.6463 9.44062 10.7543C9.28395 10.8082 7.85653 11.1682 6.04614 11.0602C6.04614 11.0602 4.70575 12.734 4.27056 13.184C4.20093 13.2559 4.1313 13.2739 4.07908 13.2739C4.00945 13.2559 3.99204 13.166 3.99204 13.04C3.99204 12.86 4.00945 10.7363 4.00945 10.7363C1.3809 9.98035 1.53757 7.1367 1.55497 5.64288C1.58979 4.14906 1.85091 2.94321 2.65166 2.11531C4.09649 0.765477 7.07319 0.963454 7.07319 0.963454C9.57988 0.981451 10.781 1.75536 11.0595 2.02532C11.9647 2.85322 12.4347 4.81499 12.104 7.67664Z" fill="currentColor"></path>
<path d="M8.32576 5.53499C8.29095 4.85105 7.96031 4.49108 7.31641 4.45508" stroke="currentColor" stroke-width="0.5625" stroke-linecap="round" stroke-linejoin="round"></path>
<path d="M9.19819 5.82334C9.2156 5.19339 9.02412 4.65344 8.65854 4.23947C8.27556 3.80751 7.75331 3.57353 7.0918 3.51953" stroke="currentColor" stroke-width="0.5625" stroke-linecap="round" stroke-linejoin="round"></path>
<path d="M10.0673 6.18437C10.0673 5.08646 9.73658 4.22254 9.10988 3.59259C8.48319 2.96264 7.69981 2.63867 6.75977 2.63867" stroke="currentColor" stroke-width="0.5625" stroke-linecap="round" stroke-linejoin="round"></path>
<path d="M7.35158 7.85743C7.35158 7.85743 7.59528 7.87543 7.71713 7.71345L7.96085 7.38949C8.0827 7.22751 8.36122 7.11952 8.65715 7.2815C8.81382 7.37149 9.09234 7.55146 9.26642 7.69545C9.4579 7.83943 9.84086 8.16339 9.84086 8.16339C10.0323 8.32537 10.0672 8.55934 9.94531 8.81131C9.82346 9.04528 9.64938 9.26126 9.42308 9.45923C9.24901 9.62121 9.07493 9.69321 8.90086 9.7292H8.83123C8.7616 9.7292 8.67455 9.7112 8.60492 9.6932C8.34381 9.62121 7.90862 9.42324 7.16009 9.00929C6.69009 8.73932 6.28972 8.45136 5.95897 8.18139C5.7849 8.03741 5.59341 7.87543 5.41933 7.67745L5.34971 7.60546C5.15822 7.40748 5.00155 7.22751 4.86229 7.04753C4.60118 6.70557 4.32265 6.29162 4.06154 5.80568C3.66116 5.04977 3.46968 4.59983 3.40005 4.31186C3.38264 4.23987 3.36523 4.16788 3.36523 4.07789V4.0059C3.38264 3.82592 3.46968 3.64594 3.62635 3.46596C3.81783 3.24999 4.02672 3.07001 4.25302 2.92603C4.49673 2.80005 4.72303 2.83604 4.8797 3.03402C4.8797 3.03402 5.19304 3.42997 5.3323 3.62795C5.45415 3.80793 5.62822 4.09589 5.73267 4.25787C5.88934 4.54584 5.78489 4.8518 5.64563 4.97778L5.3323 5.22975C5.17563 5.35574 5.19303 5.60771 5.19303 5.60771C5.19303 5.60771 5.62823 7.38949 7.35158 7.85743Z" fill="currentColor"></path>
</symbol>
<symbol viewBox="0 0 14 14" fill="none" id="Telegram">
<path d="M5.38137 8.49377L5.15451 11.3655C5.47909 11.3655 5.61967 11.24 5.78824 11.0894L7.30999 9.7805L10.4632 11.8587C11.0415 12.1488 11.4489 11.996 11.605 11.3799L13.6747 2.65151C13.8581 1.88214 13.3661 1.58077 12.8027 1.76952L0.636688 5.96144C-0.193617 6.25149 -0.181046 6.66806 0.495542 6.8568L3.6059 7.72748L10.8306 3.65899C11.1707 3.45636 11.4798 3.56848 11.2255 3.77111L5.38137 8.49377Z" fill="currentColor"></path>
</symbol>
<symbol viewBox="0 0 24 24" fill="none" id="SwiperArrow">
<path d="M1.03418 12.8613L0.274414 12.1367L1.03418 11.4121L4.33106 8.27344L5.86426 9.53418L4.84375 11.1367L23 11.1367L23 13.1367L4.8457 13.1367L5.86426 14.7383L4.33105 16L1.03418 12.8613Z" fill="currentColor"></path>
</symbol>
<symbol viewBox="0 0 40 44" fill="none" id="SOLogo">
<g clip-path="url(#clip0_893_9999)">
<path d="M40 0H0V44H40V0Z" fill="white"></path>
<path d="M5.76275 31.3656C5.76275 31.5618 6.00845 31.6388 6.90985 31.6388C7.9014 31.6388 8.02664 31.5731 8.02664 31.4507C8.02664 31.3202 7.95883 31.2546 6.76627 31.2165C5.15809 31.163 4.73052 30.8931 4.73052 30.2974C4.73052 29.6627 5.29849 29.332 6.83487 29.332C8.47016 29.332 8.98468 29.5395 8.98468 30.209C8.98468 30.2666 8.98468 30.3241 8.98069 30.3898C8.86742 30.3825 8.6664 30.3784 8.47335 30.3784C8.27313 30.3784 8.07211 30.3825 7.95883 30.3898V30.3168C7.95883 30.1207 7.82243 30.055 6.81971 30.055C5.89597 30.055 5.76036 30.1126 5.76036 30.2285C5.76036 30.3436 5.83215 30.3938 7.1005 30.4595C8.60338 30.5365 9.06445 30.7594 9.06445 31.4053C9.06445 32.0781 8.53877 32.4015 6.92262 32.4015C5.27216 32.4015 4.70898 32.121 4.70898 31.5358C4.70898 31.4669 4.71297 31.3932 4.72414 31.317C4.85656 31.3324 5.05678 31.3437 5.24664 31.3437C5.43968 31.3437 5.62156 31.3397 5.76515 31.3324V31.3656H5.76275Z" fill="#14293E"></path>
<path d="M14.0269 32.3088C14.0421 31.8971 14.0532 31.4975 14.0572 31.0209C14.0572 30.8247 14.0724 30.6132 14.0835 30.4098L14.0572 30.4025C13.9623 30.5946 13.857 30.7948 13.7278 30.9641L12.7282 32.3104H12.2097L11.0898 30.7956C10.9645 30.6262 10.8552 30.4268 10.7603 30.242L10.734 30.2493C10.7452 30.4495 10.7603 30.6489 10.7643 30.8685C10.7683 31.4067 10.7795 31.8565 10.8018 32.3104H9.78711C9.80945 31.8954 9.81742 31.4756 9.81742 30.8645C9.81742 30.2339 9.81024 29.8027 9.79828 29.4258H11.3195C11.5277 29.737 11.838 30.2063 12.2281 30.7794C12.3302 30.9252 12.4403 31.0906 12.5464 31.26H12.5687C12.6708 31.0865 12.7689 30.9212 12.8639 30.7794C13.2268 30.2298 13.5674 29.7297 13.7724 29.4258H15.1158C15.1046 29.8027 15.0934 30.2331 15.0934 30.8645C15.0934 31.4756 15.0974 31.8954 15.1238 32.3104H14.0269V32.3088Z" fill="#14293E"></path>
<path d="M19.4983 32.3077C19.464 32.2234 19.3731 32.0345 19.2486 31.8003C18.8553 31.7962 18.4573 31.7962 18.155 31.7962C17.879 31.7962 17.4737 31.7962 17.0916 31.8003C16.9632 32.0191 16.8611 32.2039 16.8116 32.3077H15.5664C16.1073 31.5466 17.1562 29.9312 17.4019 29.4238H18.9766C19.2343 29.9312 20.2824 31.5271 20.8464 32.3077H19.4983ZM17.9204 30.4191C17.792 30.6266 17.6444 30.869 17.5 31.1113C17.7386 31.1154 17.9771 31.1154 18.1589 31.1154C18.356 31.1154 18.6128 31.1154 18.8705 31.1113C18.7301 30.8649 18.5825 30.6193 18.4501 30.411C18.3328 30.2303 18.2499 30.0804 18.1853 29.9612L17.9204 30.4191Z" fill="#14293E"></path>
<path d="M24.5091 31.1275C25.1712 31.1932 25.4743 31.301 25.5955 31.7387C25.6633 31.9883 25.724 32.1966 25.7734 32.3077H24.8313C24.6614 32.3077 24.6311 32.2696 24.5362 31.8927C24.4532 31.5539 24.328 31.4923 23.6396 31.4923H22.2851C22.2922 31.8189 22.3074 32.1002 22.3305 32.3077H21.248C21.2552 31.8886 21.2632 31.485 21.2632 30.8657C21.2632 30.2546 21.2592 29.8388 21.248 29.4238H24.0639C25.0898 29.4238 25.57 29.697 25.57 30.2814C25.57 30.7774 25.2517 31.0311 24.5107 31.1121V31.1275H24.5091ZM23.7329 30.7742C24.3423 30.7742 24.5617 30.6704 24.5617 30.4589C24.5617 30.24 24.3463 30.1663 23.7441 30.1663C23.4561 30.1663 22.6504 30.1703 22.2683 30.1817C22.2683 30.3778 22.2683 30.574 22.2723 30.762C22.5451 30.7742 23.1235 30.7742 23.7329 30.7742Z" fill="#14293E"></path>
<path d="M30.0193 29.4238C30.0121 29.5357 30.0121 29.7043 30.0121 29.8542C30.0121 30.0001 30.0121 30.1809 30.0193 30.3041C29.4936 30.2887 28.9711 30.2887 28.5164 30.2887C28.5164 31.254 28.5204 32.088 28.5315 32.3117C28.3919 32.3004 28.1566 32.3004 27.9979 32.3004C27.8391 32.3004 27.6158 32.3004 27.4642 32.3117C27.4754 32.0888 27.4833 31.258 27.4833 30.2887C27.0295 30.2887 26.507 30.2887 25.9805 30.3041C25.9845 30.1809 25.9845 30.0042 25.9845 29.8542C25.9845 29.7043 25.9845 29.5389 25.9805 29.4238H30.0193Z" fill="#14293E"></path>
<path d="M7.10754 37.0519C5.34381 37.0519 4.62109 36.4132 4.62109 35.4714C4.62109 34.4906 5.4196 33.9062 7.10754 33.9062C8.79548 33.9062 9.59399 34.4906 9.59399 35.4714C9.59399 36.414 8.87126 37.0519 7.10754 37.0519ZM8.53065 35.4754C8.53065 35.0021 8.1637 34.7411 7.10754 34.7411C6.05138 34.7411 5.68443 35.0029 5.68443 35.4754C5.68443 35.9407 6.04739 36.2179 7.10754 36.2179C8.17168 36.2179 8.53065 35.9407 8.53065 35.4754Z" fill="#14293E"></path>
<path d="M13.5345 35.7408C14.1966 35.8065 14.4997 35.9143 14.6209 36.352C14.6887 36.6016 14.7494 36.8099 14.7988 36.9209H13.8567C13.6868 36.9209 13.6565 36.8828 13.5616 36.506C13.4786 36.1672 13.3534 36.1056 12.665 36.1056H11.3105C11.3176 36.4322 11.3328 36.7134 11.3559 36.9209H10.2734C10.2806 36.5019 10.2886 36.0983 10.2886 35.479C10.2886 34.8679 10.2846 34.4521 10.2734 34.0371H13.0893C14.1152 34.0371 14.5954 34.3103 14.5954 34.8946C14.5954 35.3907 14.2771 35.6444 13.5361 35.7254V35.7408H13.5345ZM12.7583 35.3874C13.3677 35.3874 13.5871 35.2837 13.5871 35.0721C13.5871 34.8533 13.3717 34.7795 12.7695 34.7795C12.4815 34.7795 11.6758 34.7836 11.2937 34.7949C11.2937 34.9911 11.2937 35.1872 11.2977 35.3753C11.5705 35.3874 12.1496 35.3874 12.7583 35.3874Z" fill="#14293E"></path>
<path d="M18.8362 36.9229C18.8019 36.8386 18.7109 36.6497 18.5865 36.4155C18.1932 36.4115 17.7952 36.4115 17.4928 36.4115C17.2168 36.4115 16.8116 36.4115 16.4295 36.4155C16.3011 36.6343 16.199 36.8191 16.1495 36.9229H14.9043C15.4451 36.1618 16.4941 34.5464 16.7398 34.0391H18.3145C18.5721 34.5464 19.6203 36.1424 20.1843 36.9229H18.8362ZM17.2583 35.0344C17.1299 35.2419 16.9823 35.4842 16.8379 35.7266C17.0764 35.7306 17.315 35.7306 17.4968 35.7306C17.6939 35.7306 17.9507 35.7306 18.2084 35.7266C18.068 35.4802 17.9204 35.2346 17.788 35.0263C17.6707 34.8455 17.5878 34.6956 17.5232 34.5764L17.2583 35.0344Z" fill="#14293E"></path>
<path d="M25.1401 34.0391C25.1289 34.3933 25.1249 34.8658 25.1249 35.4777C25.1249 36.1124 25.1249 36.5387 25.1321 36.9237H24.0536C23.8303 36.666 22.6536 35.8506 22.0027 35.3894C21.844 35.2743 21.6812 35.1584 21.5488 35.036C21.564 35.267 21.568 35.4972 21.5751 35.7322C21.5791 36.328 21.5823 36.747 21.5943 36.9245H20.6211C20.6211 36.5363 20.6323 36.0978 20.6323 35.4826C20.6323 34.8715 20.6323 34.433 20.6211 34.0407H21.8551C21.9947 34.2255 23.2934 35.1633 23.8725 35.5677C24.0089 35.6601 24.1454 35.7331 24.2475 35.8327C24.2323 35.6212 24.2251 35.4178 24.2251 35.2597C24.2251 34.7256 24.214 34.2449 24.1988 34.0407H25.1401V34.0391Z" fill="#14293E"></path>
<path d="M28.345 37.0139C26.752 37.0139 25.8242 36.5487 25.8242 35.4602C25.8242 34.3141 26.7894 33.9453 28.2883 33.9453C29.7186 33.9453 30.6041 34.1836 30.6041 35.0452C30.6041 35.0719 30.6041 35.1027 30.6001 35.1295C30.4868 35.1214 30.2858 35.1181 30.0927 35.1181C29.8845 35.1181 29.6875 35.1222 29.5702 35.1295C29.5702 35.1141 29.5742 35.0987 29.5742 35.0833C29.5742 34.8142 29.2145 34.7291 28.2835 34.7291C27.2992 34.7291 26.8908 34.9333 26.8908 35.4788C26.8908 35.9749 27.2729 36.2399 28.3442 36.2399C29.1427 36.2399 29.4945 36.1167 29.5966 35.8557C29.0709 35.8557 28.3625 35.8598 27.8935 35.8711C27.8975 35.8136 27.8975 35.6904 27.8975 35.6328C27.8975 35.5291 27.8975 35.4367 27.8935 35.3637C28.5069 35.3751 29.1347 35.3718 29.5926 35.3718C29.8726 35.3718 30.2323 35.3759 30.6073 35.3637C30.6767 36.402 30.419 37.0139 28.345 37.0139Z" fill="#14293E"></path>
<path d="M35.3853 34.0391C35.3813 34.1234 35.3781 34.2579 35.3781 34.3779C35.3781 34.5011 35.3781 34.6397 35.3853 34.7199C34.5979 34.7158 33.1748 34.7126 32.4673 34.7126V35.1552C33.2849 35.1552 34.7112 35.1552 35.3438 35.1438C35.3398 35.2938 35.3366 35.6018 35.3398 35.763C34.7192 35.7558 33.2769 35.7476 32.4673 35.7476V36.1975C33.1748 36.1975 34.6474 36.1934 35.3853 36.1902C35.3781 36.2826 35.3781 36.4285 35.3781 36.563C35.3781 36.6862 35.3781 36.8281 35.3853 36.9245H31.3848C31.3999 36.5322 31.3999 36.0978 31.3999 35.4826C31.3999 34.8715 31.3999 34.4289 31.3848 34.0407H35.3853V34.0391Z" fill="#14293E"></path>
<path d="M9.47006 21.6996C9.25069 21.6996 9.04409 21.6745 8.85104 21.6226C8.19054 21.4443 7.73107 20.9572 7.51967 20.2123C5.8437 18.9025 4.84816 17.0529 4.71494 14.9998C4.56896 12.7579 5.44325 10.5574 7.17666 8.8034L7.29153 8.6875L7.33461 8.84555C8.00069 11.3031 11.4548 15.5591 15.0333 18.3335L15.1194 18.4L15.0428 18.4778C13.0238 20.5219 10.9618 21.6996 9.47006 21.6996ZM7.1982 9.05386C5.57886 10.7495 4.7644 12.8503 4.9032 14.9869C5.03323 16.9945 6.01201 18.8028 7.65927 20.0794L7.6848 20.0988L7.69278 20.1296C7.88343 20.8324 8.28946 21.2725 8.89891 21.4362C9.07919 21.4848 9.27383 21.5083 9.47964 21.5083C10.8964 21.5083 12.8731 20.3793 14.8322 18.4178C11.3311 15.6807 7.96639 11.5454 7.1982 9.05386Z" fill="#14293E"></path>
<path d="M9.00113 21.6463C7.17358 20.2295 5.40747 18.0476 5.06445 16.7815L5.24633 16.7305C5.58057 17.9625 7.31637 20.099 9.1152 21.4939L9.00113 21.6463Z" fill="#14293E"></path>
<path d="M11.6478 21.0183C8.53116 18.6022 5.52062 14.8851 4.9375 12.7308L5.11938 12.6797C5.69372 14.7992 8.67395 18.4717 11.7627 20.866L11.6478 21.0183Z" fill="#14293E"></path>
<path d="M7.56486 20.2448C6.59485 19.8387 5.98062 19.1068 5.78837 18.1261C5.43578 16.3275 6.51667 13.947 8.67925 11.7578L8.81247 11.8932C6.69456 14.037 5.63361 16.3527 5.97344 18.088C6.15212 19.0023 6.72807 19.6863 7.63665 20.0665L7.56486 20.2448Z" fill="#14293E"></path>
<path d="M7.27491 20.3913C7.22386 20.3913 7.18158 20.3743 7.15047 20.3338C7.08586 20.2479 6.97737 20.1052 8.19786 18.6747C8.97881 17.7588 10.1084 16.5503 11.4629 15.1797L11.5961 15.315C8.57996 18.3683 7.41052 19.8653 7.3148 20.1936C7.35468 20.1822 7.42967 20.1514 7.56289 20.0728L7.65781 20.2382C7.51821 20.32 7.37941 20.3913 7.27491 20.3913Z" fill="#14293E"></path>
<path d="M13.0771 22.0395C12.1039 22.0395 11.1395 21.8993 10.2253 21.6148C9.72037 21.7258 9.25929 21.7323 8.85885 21.6245C8.18877 21.4438 7.7261 20.9453 7.5195 20.1834L7.44531 19.9094L7.66787 20.0821C8.44165 20.6819 9.31434 21.1268 10.2397 21.4194C11.5838 21.1082 13.2598 20.0229 14.9182 18.3443L14.9764 18.2852L15.0419 18.3362C16.5455 19.5018 17.624 20.0845 18.385 20.3585C19.0447 19.9548 19.6622 19.471 20.2174 18.9084L20.3322 18.7925L20.3753 18.9506C20.6521 19.9727 20.3817 20.4136 20.1057 20.6024C19.7427 20.8513 19.1572 20.8326 18.405 20.5684C16.7801 21.541 14.9126 22.0395 13.0771 22.0395ZM10.5827 21.5216C13.0532 22.1959 15.8555 21.8247 18.1744 20.4833C17.2914 20.1315 16.2041 19.4734 14.9916 18.5397C13.4528 20.0837 11.8925 21.1236 10.5827 21.5216ZM7.79391 20.4144C8.00929 20.9542 8.38262 21.2987 8.90671 21.4397C9.18989 21.5159 9.50579 21.5313 9.8496 21.4892C9.1197 21.2265 8.42729 20.8691 7.79391 20.4144ZM18.6188 20.4363C19.5066 20.7054 19.8927 20.5173 19.9988 20.4444C20.3641 20.1939 20.3394 19.6371 20.2317 19.1613C19.7356 19.6468 19.1939 20.0724 18.6188 20.4363Z" fill="#14293E"></path>
<path d="M11.3251 22.8116C10.8081 22.8116 9.98492 22.4031 9.01172 21.6485L9.12579 21.4961C10.5106 22.57 11.3099 22.7394 11.5739 22.5587C11.7566 22.4331 11.7175 22.1218 11.6529 21.8827L11.8348 21.8316C11.9824 22.3747 11.8316 22.613 11.68 22.7176C11.5875 22.7808 11.4679 22.8116 11.3251 22.8116Z" fill="#14293E"></path>
<path d="M15.5627 22.9989C14.7004 22.9989 13.3084 22.3026 11.6523 21.0196L11.7664 20.8672C13.7399 22.3966 15.4151 23.1115 16.0325 22.6868C16.3779 22.4501 16.3109 21.8868 16.1945 21.4556L16.3764 21.4046C16.6173 22.2945 16.3803 22.6795 16.1386 22.8457C15.9887 22.9486 15.7948 22.9989 15.5627 22.9989Z" fill="#14293E"></path>
<path d="M12.5922 22.972C12.3976 22.972 12.203 22.963 12.0099 22.9444C10.1967 22.7726 8.60691 21.8024 7.5332 20.2121L7.68876 20.1035C8.73056 21.6459 10.2717 22.587 12.0283 22.7531C14.1039 22.9501 16.2952 22.0488 18.0414 20.281L18.1746 20.4164C16.5497 22.0609 14.5442 22.972 12.5922 22.972Z" fill="#14293E"></path>
<path d="M14.1016 23.1163C14.0665 23.1163 14.0314 23.1163 13.9963 23.1155C11.5665 23.0863 9.2755 22.0586 7.54688 20.222L7.68328 20.0898C9.37681 21.8884 11.62 22.8951 13.9995 22.9242C14.0338 22.9242 14.0681 22.925 14.1032 22.925C16.3168 22.925 18.3885 22.0602 19.9472 20.4821L20.0804 20.6175C18.4842 22.2321 16.3655 23.1163 14.1016 23.1163Z" fill="#14293E"></path>
<path d="M13.0826 22.037C11.0851 22.037 9.12436 21.4462 7.55767 20.232L7.53214 20.2125L7.52416 20.1817C6.84532 17.6772 9.07251 12.8263 12.4899 9.36776L12.5481 9.30859L12.6135 9.35966C16.2207 12.156 19.7043 16.4574 20.38 18.9489L20.3943 19.0024L20.3552 19.0422C18.4073 21.0133 15.7126 22.037 13.0826 22.037ZM7.69726 20.0999C11.2415 22.8249 16.823 22.3069 20.1829 18.9465C19.4858 16.4963 16.0939 12.3181 12.5649 9.5631C9.23763 12.9592 7.06548 17.6602 7.69726 20.0999Z" fill="#14293E"></path>
<path d="M11.6462 21.8807C11.312 20.6487 9.57697 18.5121 7.77734 17.1172L7.89142 16.9648C9.71896 18.3816 11.4843 20.5636 11.8281 21.8296L11.6462 21.8807Z" fill="#14293E"></path>
<path d="M16.198 21.4558C15.6236 19.3363 12.6434 15.6638 9.55469 13.2696L9.66876 13.1172C12.7854 15.5334 15.7951 19.2504 16.3791 21.4048L16.198 21.4558Z" fill="#14293E"></path>
<path d="M9.52133 20.595C8.8026 20.595 8.1437 20.4823 7.57812 20.2457L7.64992 20.069C10.3829 21.2118 15.347 19.3654 18.7181 15.9531L18.8513 16.0885C16.1231 18.8499 12.354 20.595 9.52133 20.595Z" fill="#14293E"></path>
<path d="M7.66329 20.2362L7.56836 20.0709C8.79683 19.3438 12.5548 15.9591 15.9459 12.5273L16.0791 12.6627C12.6785 16.105 8.90372 19.5027 7.66329 20.2362Z" fill="#14293E"></path>
<path d="M7.76686 20.4065L7.5443 20.2339C5.85397 18.9233 4.84886 17.0647 4.71485 15.002C4.57046 12.7771 5.43039 10.5927 7.13747 8.84443C6.8846 7.86046 7.15024 7.4325 7.42146 7.24608C8.23512 6.68763 10.1711 7.47789 12.5994 9.36073L12.6855 9.42719L12.6089 9.505C9.23544 12.9205 7.02978 17.688 7.69188 20.1326L7.76686 20.4065ZM8.08674 7.27283C7.76208 7.27283 7.59296 7.36036 7.52755 7.40494C7.11993 7.68457 7.1973 8.34353 7.33371 8.84767L7.34807 8.90117L7.30898 8.94088C5.61545 10.6559 4.76031 12.8038 4.90231 14.989C5.02675 16.9099 5.92895 18.6493 7.45017 19.9145C6.99149 17.3646 9.1437 12.7795 12.3991 9.44665C10.0419 7.63351 8.74485 7.27283 8.08674 7.27283Z" fill="#14293E"></path>
<path d="M7.7811 17.1171C6.39629 16.044 5.59699 15.8737 5.33294 16.0545C5.15027 16.1801 5.18936 16.4914 5.25397 16.7305L5.0721 16.7815C4.92452 16.2385 5.07529 16.0002 5.22685 15.8956C5.65602 15.6014 6.65315 16.001 7.89517 16.9647L7.7811 17.1171Z" fill="#14293E"></path>
<path d="M9.55036 13.2725C7.57684 11.7431 5.90325 11.0282 5.28423 11.4529C4.93883 11.6896 5.00583 12.2529 5.1223 12.6841L4.94042 12.7351C4.69951 11.8452 4.93643 11.4602 5.17894 11.294C5.8865 10.8085 7.56407 11.491 9.66523 13.1201L9.55036 13.2725Z" fill="#14293E"></path>
<path d="M7.52873 20.2111C5.11168 16.6327 5.93252 10.8999 9.35787 7.43164L9.49109 7.567C6.12637 10.9728 5.3159 16.5962 7.68428 20.1025L7.52873 20.2111Z" fill="#14293E"></path>
<path d="M7.53542 20.2248C4.05902 16.5336 4.02312 10.7044 7.45405 7.23047L7.58727 7.36583C4.22813 10.766 4.26562 16.4753 7.67182 20.0918L7.53542 20.2248Z" fill="#14293E"></path>
<path d="M14.9849 18.5372L14.9195 18.4861C11.3123 15.6898 7.82869 11.3884 7.15303 8.89683L7.13867 8.84334L7.17776 8.80362C10.6047 5.33459 16.3458 4.80045 19.9745 7.61377L20.0001 7.63323L20.008 7.66403C20.6869 10.1685 18.4597 15.0195 15.0431 18.4772L14.9849 18.5372ZM7.34927 8.90007C8.04646 11.3503 11.4383 15.5285 14.9681 18.2835C18.2946 14.8874 20.4667 10.1864 19.8341 7.7467C16.2899 5.02172 10.7092 5.53965 7.34927 8.90007Z" fill="#14293E"></path>
<path d="M17.8626 14.7254C14.746 12.3092 11.7363 8.59215 11.1523 6.43778L11.3342 6.38672C11.9086 8.50623 14.8888 12.1787 17.9775 14.5722L17.8626 14.7254Z" fill="#14293E"></path>
<path d="M19.63 10.8807C17.8025 9.46387 16.0364 7.28113 15.6934 6.01591L15.8752 5.96484C16.2095 7.19684 17.9445 9.33337 19.7441 10.7283L19.63 10.8807Z" fill="#14293E"></path>
<path d="M8.81486 11.8929L8.68164 11.7575C12.1014 8.29581 17.1581 6.43161 19.954 7.60119L19.8822 7.77869C17.1501 6.63505 12.1852 8.48061 8.81486 11.8929Z" fill="#14293E"></path>
<path d="M11.5863 15.3155L11.4531 15.1801C14.8529 11.7387 18.6277 8.34094 19.8681 7.60742L19.963 7.77277C18.7338 8.49981 14.9766 11.8829 11.5863 15.3155Z" fill="#14293E"></path>
<path d="M19.4403 20.7761C18.4463 20.7761 16.8374 19.9705 14.9221 18.4864L14.8359 18.4199L14.9125 18.3421C18.286 14.9274 20.4917 10.1599 19.8288 7.71536L19.7546 7.44141L19.9771 7.61405C21.6675 8.92466 22.6726 10.7832 22.8066 12.846C22.951 15.0709 22.0911 17.2552 20.384 19.0027C20.6368 19.9867 20.3712 20.4146 20.1 20.601C19.9285 20.7186 19.7067 20.7761 19.4403 20.7761ZM15.1231 18.3997C18.645 21.1068 19.7985 20.5759 19.9955 20.4414C20.4031 20.1617 20.3257 19.5028 20.1893 18.9986L20.175 18.9451L20.2141 18.9054C21.9076 17.1912 22.7619 15.0433 22.6199 12.8581C22.4955 10.9372 21.5933 9.19781 20.0721 7.93258C20.5308 10.4833 18.3785 15.0676 15.1231 18.3997Z" fill="#14293E"></path>
<path d="M21.7736 16.7059C20.9113 16.7059 19.5193 16.0097 17.8633 14.7266L17.9774 14.5742C19.9509 16.1037 21.6253 16.8186 22.2435 16.3938C22.5889 16.1572 22.5219 15.5939 22.4054 15.1627L22.5873 15.1116C22.8282 16.0015 22.5913 16.3865 22.3496 16.5527C22.1996 16.6548 22.0058 16.7059 21.7736 16.7059Z" fill="#14293E"></path>
<path d="M21.954 12.0459C21.4371 12.0459 20.6138 11.6374 19.6406 10.8828L19.7547 10.7305C21.1395 11.8036 21.9388 11.9738 22.2029 11.7931C22.3855 11.6674 22.3464 11.3562 22.2818 11.1171L22.4637 11.066C22.6113 11.6091 22.4605 11.8474 22.3089 11.9519C22.2156 12.0143 22.0968 12.0459 21.954 12.0459Z" fill="#14293E"></path>
<path d="M18.1645 20.4135L18.0312 20.2781C21.396 16.8723 22.2064 11.2489 19.8381 7.74338L19.9936 7.63477C22.4107 11.2132 21.5906 16.9452 18.1645 20.4135Z" fill="#14293E"></path>
<path d="M20.0701 20.6177L19.9369 20.4823C23.2952 17.0822 23.2578 11.3737 19.8516 7.75711L19.988 7.625C23.4644 11.3161 23.5011 17.1446 20.0701 20.6177Z" fill="#14293E"></path>
<path d="M20.2341 19.1602L20.1911 19.0021C19.525 16.5446 16.0709 12.2886 12.4924 9.51418L12.4062 9.44771L12.4828 9.3699C14.7986 7.02587 17.1709 5.82063 18.6738 6.22589C19.3343 6.4042 19.7946 6.89133 20.0052 7.6362C21.6812 8.946 22.6767 10.7956 22.8099 12.8487C22.9551 15.0898 22.0816 17.2903 20.349 19.0443L20.2341 19.1602ZM12.6926 9.42826C16.1938 12.167 19.5593 16.3015 20.3275 18.7938C21.9468 17.099 22.7605 14.9982 22.6217 12.8616C22.4908 10.854 21.5129 9.04569 19.8656 7.76912L19.8401 7.74967L19.8321 7.71887C19.6414 7.01615 19.2354 6.57603 18.626 6.41231C17.2029 6.02731 14.9366 7.1823 12.6926 9.42826Z" fill="#14293E"></path>
<path d="M22.405 15.1648C21.8307 13.0453 18.8504 9.37283 15.7617 6.97855L15.8758 6.82617C18.9924 9.24234 22.0022 12.9594 22.5861 15.1138L22.405 15.1648Z" fill="#14293E"></path>
<path d="M22.2829 11.117C21.9487 9.88499 20.2129 7.74846 18.4141 6.35355L18.5281 6.20117C20.3557 7.61796 22.1218 9.79989 22.4648 11.0659L22.2829 11.117Z" fill="#14293E"></path>
<path d="M18.8481 16.0889L18.7148 15.9535C20.832 13.8105 21.8929 11.4948 21.5531 9.7595C21.3744 8.84524 20.7992 8.16115 19.8899 7.78102L19.9617 7.60352C20.9317 8.00959 21.5459 8.74149 21.7381 9.72222C22.0907 11.52 21.0098 13.9005 18.8481 16.0889Z" fill="#14293E"></path>
<path d="M16.0746 12.668L15.9414 12.5327C18.9567 9.48025 20.1262 7.98322 20.2219 7.65496C20.182 7.66631 20.107 7.69711 19.9738 7.77573L19.8789 7.61038C20.0871 7.48718 20.2921 7.39073 20.3862 7.51474C20.4508 7.60065 20.5593 7.74331 19.3388 9.17388C18.5579 10.089 17.4291 11.2974 16.0746 12.668Z" fill="#14293E"></path>
<path d="M12.5528 9.56183L12.4874 9.51077C10.9845 8.34524 9.9052 7.76247 9.14419 7.48851C8.48449 7.89215 7.86707 8.37604 7.31107 8.93854L7.1962 9.05444L7.15312 8.89639C6.87632 7.87432 7.14674 7.4334 7.42275 7.24455C7.7857 6.99572 8.37122 7.01436 9.12345 7.27859C11.6067 5.79209 14.6627 5.41277 17.3015 6.23302C17.8073 6.12197 18.2683 6.11549 18.668 6.22329C19.3381 6.40404 19.8015 6.90251 20.0081 7.6644L20.0823 7.93835L19.8598 7.76571C19.086 7.16593 18.2133 6.72095 17.288 6.42835C15.9438 6.73959 14.2679 7.82488 12.6102 9.50266L12.5528 9.56183ZM9.35319 7.3645C10.2363 7.71627 11.3235 8.37441 12.536 9.30814C14.074 7.76409 15.6343 6.72419 16.9441 6.32704C14.4745 5.65268 11.6721 6.0239 9.35319 7.3645ZM8.08803 7.27048C7.76337 7.27048 7.59425 7.35802 7.52884 7.4026C7.16349 7.65305 7.18822 8.20988 7.29591 8.68565C7.79208 8.20015 8.33452 7.77544 8.90967 7.4107C8.56426 7.30615 8.29464 7.27048 8.08803 7.27048ZM17.678 6.35865C18.4071 6.62126 19.0995 6.9787 19.7337 7.4334C19.5183 6.89359 19.145 6.54912 18.6209 6.40809C18.3377 6.3319 18.0211 6.3165 17.678 6.35865Z" fill="#14293E"></path>
<path d="M15.7652 6.9776C13.7917 5.44814 12.1165 4.73326 11.4991 5.15797C11.1537 5.39465 11.2207 5.95796 11.3372 6.38916L11.1553 6.44022C10.9144 5.55027 11.1513 5.16527 11.393 4.99911C12.1006 4.51361 13.7781 5.19607 15.8793 6.82522L15.7652 6.9776Z" fill="#14293E"></path>
<path d="M18.41 6.35033C17.0252 5.2772 16.2251 5.10699 15.9619 5.28855C15.7792 5.41418 15.8183 5.72542 15.8829 5.96452L15.701 6.01558C15.5534 5.47253 15.7042 5.23424 15.8558 5.12968C16.2841 4.83628 17.2813 5.23505 18.5241 6.19876L18.41 6.35033Z" fill="#14293E"></path>
<path d="M19.8405 7.74225C18.7987 6.19983 17.2575 5.25882 15.501 5.09266C13.4246 4.89651 11.2341 5.797 9.48869 7.56475L9.35547 7.42939C11.1415 5.62193 13.3879 4.70118 15.5185 4.90219C17.3317 5.07402 18.9215 6.04421 19.9961 7.63446L19.8405 7.74225Z" fill="#14293E"></path>
<path d="M19.8573 7.75696C18.1629 5.95841 15.9206 4.95174 13.541 4.92256C11.2843 4.89663 9.1768 5.76226 7.59415 7.36467L7.46094 7.22931C9.05475 5.61556 11.1735 4.73047 13.4373 4.73047C13.4724 4.73047 13.5075 4.73047 13.5426 4.73128C15.9724 4.76046 18.2635 5.7882 19.9929 7.62484L19.8573 7.75696Z" fill="#14293E"></path>
<path d="M13.73 23.2132C13.5665 23.2132 13.3942 23.2059 13.2642 23.1961C13.0456 23.1807 12.7401 23.1483 12.3309 23.0964C12.09 23.0656 11.79 22.9984 11.6065 22.9506C11.305 22.8711 10.9014 22.7471 10.6014 22.6409C10.3422 22.5493 9.77741 22.3102 9.28762 22.0249C9.06107 21.8936 8.45961 21.5435 7.84298 21.0069C7.53268 20.737 7.06203 20.3026 6.55788 19.6485C6.39116 19.4329 6.26273 19.244 6.26194 19.2424C6.13271 19.0519 6.13271 19.0519 5.93568 18.7334C5.78331 18.487 5.62298 18.1636 5.55437 18.0258C5.45227 17.8191 5.34458 17.5744 5.27917 17.3993C5.23051 17.2696 5.18025 17.1245 5.13159 16.9803C5.06139 16.789 4.99917 16.5936 4.94573 16.3959C4.87314 16.1089 4.77821 15.7304 4.73912 15.4411C4.70243 15.172 4.66174 14.8648 4.6426 14.6281C4.63462 14.5341 4.60989 14.2067 4.61628 13.9505L4.61707 13.91C4.62266 13.6741 4.62984 13.3807 4.64659 13.1546C4.66174 12.9568 4.69365 12.6845 4.72795 12.4616C4.85798 11.6284 5.06777 11.0262 5.07655 11.001C5.13877 10.8252 5.25364 10.4969 5.35016 10.2651C5.42036 10.0965 5.53443 9.85172 5.65568 9.611C5.83516 9.25356 6.11117 8.8021 6.34171 8.48599C6.63686 8.08235 7.01417 7.63251 7.30374 7.34154C7.74247 6.90061 7.91398 6.7685 8.48513 6.33082C8.68376 6.17844 8.96455 6.00661 9.1576 5.89151C9.33389 5.78615 9.58277 5.6516 9.79097 5.54947C9.99199 5.45059 10.2784 5.32577 10.5201 5.23175C10.6573 5.17825 10.8232 5.12395 10.9843 5.07208C11.0545 5.04938 11.1223 5.0275 11.183 5.00642C11.4087 4.93024 11.7071 4.86539 11.9687 4.81109C12.1107 4.78191 12.2814 4.75597 12.4465 4.73166C12.5167 4.72112 12.5837 4.71139 12.6452 4.70167C12.8964 4.66114 13.2283 4.64574 13.4899 4.63764C13.7141 4.62953 13.9765 4.63196 14.1576 4.6425C14.4192 4.6579 14.7838 4.69275 15.0845 4.73166C15.5113 4.78677 15.8926 4.8889 16.2954 4.99751C16.5962 5.07856 16.995 5.22121 17.2878 5.35171C17.559 5.47328 17.7616 5.56812 17.906 5.64349C18.0887 5.73833 18.3328 5.87692 18.5131 5.98878C18.7005 6.10468 18.9151 6.24733 19.0595 6.3527C19.2749 6.51075 19.3475 6.56344 19.6705 6.83496C19.7056 6.86495 19.8899 7.023 20.1316 7.26048C20.3159 7.44204 20.4698 7.61306 20.544 7.69492C20.6334 7.79462 20.8328 8.02967 20.958 8.19501C21.1606 8.46087 21.1965 8.51598 21.3983 8.8175C21.5499 9.04525 21.8179 9.51211 21.9631 9.82254C22.0748 10.0608 22.2615 10.4604 22.4138 10.9338C22.5797 11.4476 22.6938 11.8999 22.7536 12.2776C22.8143 12.6602 22.8829 13.0922 22.8956 13.7122C22.91 14.3923 22.8502 14.9288 22.8135 15.1882C22.776 15.4532 22.7066 15.9477 22.5 16.6423C22.3755 17.0613 22.1506 17.5995 21.9839 17.9772C21.9073 18.1506 21.7844 18.3816 21.6081 18.6832C21.5316 18.8153 21.4303 18.9677 21.3329 19.1144C21.2907 19.1792 21.2492 19.2408 21.2125 19.2983C21.0753 19.5115 20.8663 19.7717 20.7163 19.9443L20.6892 19.9759C20.5089 20.1834 20.2856 20.4412 20.0901 20.6195C20.0462 20.66 19.9984 20.7038 19.9489 20.75C19.8149 20.874 19.6633 21.0142 19.5357 21.1196C19.3594 21.2655 19.0994 21.4746 18.8872 21.6116L18.7412 21.7064C18.5896 21.8053 18.4173 21.9171 18.2753 21.999C18.056 22.1246 17.7688 22.2738 17.5614 22.3702C16.8283 22.7106 16.1957 22.876 16.1263 22.8938C15.6948 23.0032 15.13 23.1013 14.7766 23.1516C14.5844 23.1791 14.3435 23.1888 14.1305 23.1978C14.0603 23.201 13.9933 23.2034 13.931 23.2067C13.8696 23.2115 13.8002 23.2132 13.73 23.2132ZM6.5172 19.2748C6.56746 19.3445 6.63287 19.4345 6.70626 19.5293C7.20083 20.1705 7.6619 20.596 7.96583 20.861C8.56889 21.3862 9.15919 21.7291 9.38095 21.858C9.86037 22.1368 10.41 22.3702 10.6637 22.4594C10.9588 22.5631 11.3569 22.6855 11.6544 22.7641C11.8889 22.8257 12.1633 22.8817 12.3548 22.906C12.76 22.9578 13.0624 22.9903 13.2777 23.0049C13.458 23.0178 13.7221 23.0276 13.9231 23.017C13.9861 23.0138 14.0539 23.0105 14.1241 23.0081C14.3323 22.9992 14.5692 22.9895 14.7519 22.9635C15.1005 22.9141 15.6581 22.8176 16.0825 22.7098C16.1503 22.6928 16.7677 22.5315 17.4856 22.1976C17.689 22.1027 17.9706 21.9569 18.1852 21.8337C18.3232 21.755 18.4923 21.644 18.6423 21.5467L18.7891 21.4511C18.9933 21.3198 19.2469 21.1147 19.42 20.9729C19.5437 20.8716 19.6929 20.733 19.8253 20.6106C19.8755 20.5644 19.9234 20.5198 19.9681 20.4793C20.1555 20.3083 20.3757 20.0554 20.552 19.8511L20.5791 19.8195C20.7243 19.6517 20.9269 19.3997 21.0585 19.1946C21.0952 19.1371 21.1375 19.0738 21.1806 19.009C21.2763 18.8639 21.3752 18.714 21.4494 18.5867C21.6217 18.2917 21.7414 18.0672 21.8147 17.9002C21.9791 17.5274 22.2 16.9973 22.3221 16.588C22.5247 15.9071 22.5933 15.4224 22.63 15.1623C22.6659 14.9086 22.7241 14.3833 22.7098 13.7171C22.697 13.1108 22.63 12.6853 22.5702 12.31C22.5119 11.9412 22.3995 11.4995 22.2367 10.9946C22.0876 10.5334 21.9041 10.1403 21.7948 9.90603C21.6528 9.60289 21.392 9.14819 21.246 8.92935C21.045 8.62864 21.0099 8.57515 20.8104 8.31335C20.6876 8.15206 20.4938 7.92268 20.4068 7.82542C20.3342 7.74437 20.1826 7.57659 20.0024 7.39827C19.7654 7.16484 19.586 7.01165 19.5525 6.98329C19.2342 6.71581 19.1624 6.66313 18.951 6.50832C18.8106 6.40538 18.6008 6.26597 18.4173 6.1525C18.241 6.04308 18.0017 5.90772 17.8222 5.81451C17.6811 5.74076 17.4824 5.64755 17.2144 5.52759C16.9296 5.40034 16.5419 5.26174 16.2492 5.18312C15.8527 5.07613 15.4778 4.97562 15.063 4.92213C14.7654 4.88404 14.4073 4.84918 14.1488 4.83378C13.9725 4.82325 13.7173 4.82163 13.4987 4.82892C13.2426 4.83784 12.918 4.85243 12.6771 4.89133C12.6156 4.90106 12.547 4.91159 12.4768 4.92213C12.3141 4.94645 12.1458 4.97157 12.0094 4.99994C11.8243 5.03885 11.4797 5.11017 11.2452 5.1896C11.183 5.21068 11.1152 5.23256 11.0442 5.25606C10.8854 5.30794 10.7211 5.36062 10.5895 5.4125C10.3526 5.50489 10.0718 5.62728 9.87473 5.72374C9.67371 5.82262 9.42403 5.95636 9.25492 6.05767C9.06506 6.17114 8.79145 6.33892 8.6008 6.48481C8.03762 6.91682 7.86771 7.04732 7.43855 7.47851C7.15536 7.76382 6.78443 8.20393 6.49486 8.60109C6.26991 8.90908 6.00109 9.35082 5.82559 9.69934C5.70594 9.93683 5.59426 10.1767 5.52566 10.3413C5.43153 10.5682 5.31746 10.8924 5.25603 11.0667C5.24726 11.091 5.04384 11.677 4.91621 12.4924C4.88271 12.7072 4.8508 12.9795 4.83644 13.17C4.81969 13.3913 4.81331 13.6822 4.80772 13.9157L4.80693 13.9562C4.80294 14.1224 4.81251 14.3679 4.83245 14.6127C4.85319 14.8632 4.90026 15.2093 4.92818 15.4151C4.96567 15.694 5.059 16.066 5.1276 16.3383C5.1284 16.3424 5.1292 16.3456 5.13079 16.3497C5.17626 16.4996 5.23928 16.6998 5.30629 16.9016C5.7538 18.1263 6.54432 19.2027 7.61723 20.0465C7.63159 20.0578 7.64515 20.0683 7.65951 20.0797L7.54544 20.2321C7.16813 19.9387 6.82511 19.6193 6.5172 19.2748Z" fill="#14293E"></path>
</g>
<defs>
<clipPath id="clip0_893_9999">
<rect width="40" height="44" fill="white"></rect>
</clipPath>
</defs>
</symbol>
<symbol viewBox="0 0 16 16" fill="none" id="Search">
<path d="M14 14L11.1047 11.1047M11.1047 11.1047C11.5999 10.6094 11.9928 10.0214 12.2608 9.37436C12.5289 8.72727 12.6668 8.03373 12.6668 7.33333C12.6668 6.63293 12.5289 5.93939 12.2608 5.2923C11.9928 4.64521 11.5999 4.05725 11.1047 3.562C10.6094 3.06674 10.0215 2.67388 9.37438 2.40585C8.72729 2.13781 8.03375 1.99986 7.33335 1.99986C6.63295 1.99986 5.9394 2.13781 5.29232 2.40585C4.64523 2.67388 4.05727 3.06674 3.56202 3.562C2.5618 4.56222 1.99988 5.91881 1.99988 7.33333C1.99988 8.74785 2.5618 10.1044 3.56202 11.1047C4.56224 12.1049 5.91882 12.6668 7.33335 12.6668C8.74787 12.6668 10.1045 12.1049 11.1047 11.1047Z" stroke="white" stroke-width="1.5" stroke-linecap="round" stroke-linejoin="round"></path>
</symbol>
<symbol viewBox="0 0 24 24" fill="none" id="Required">
<path d="M10.7435 16.6822L10.9052 13.1352L7.92432 15.0647L7 13.4702L10.1658 11.8527L7 10.2351L7.92432 8.61756L10.9052 10.5471L10.7435 7H12.569L12.4073 10.5471L15.3882 8.61756L16.3125 10.2351L13.1467 11.8527L16.3125 13.4702L15.3882 15.0647L12.4073 13.1352L12.569 16.6822H10.7435Z" fill="white"></path>
</symbol>
<symbol viewBox="0 0 32 32" fill="none" id="Price">
<path d="M15.9969 1.4668C7.96989 1.4668 1.46289 7.9738 1.46289 16.0008C1.46289 24.0278 7.96989 30.5348 15.9969 30.5348C24.0239 30.5348 30.5309 24.0278 30.5309 16.0008C30.5309 7.9738 24.0239 1.4668 15.9969 1.4668ZM17.2519 23.8808V25.9278H15.2939V23.9038C12.0809 23.4638 10.6739 20.8238 10.6739 20.8238L12.6739 19.1508C12.6739 19.1508 13.9509 21.3738 16.2609 21.3738C17.5369 21.3738 18.5049 20.6908 18.5049 19.5238C18.5049 16.7958 11.1549 17.1268 11.1549 12.0658C11.1549 9.8658 12.8949 8.2808 15.2929 7.9058V5.8608H17.2509V7.9058C18.9229 8.1258 20.9029 9.0058 20.9029 10.8988V12.3508H18.3069V11.6468C18.3069 10.9208 17.3819 10.4368 16.3469 10.4368C15.0269 10.4368 14.0599 11.0968 14.0599 12.0208C14.0599 14.8148 21.4099 14.1328 21.4099 19.4358C21.4099 21.6158 19.7819 23.5058 17.2519 23.8808Z" fill="#14293E"></path>
</symbol>
<symbol viewBox="0 0 32 32" fill="none" id="Plan">
<path fill-rule="evenodd" clip-rule="evenodd" d="M7.64945 2.03376H27.152C28.9838 2.03376 30.4826 3.53252 30.4826 5.36439V27.6694C30.4826 29.5013 28.9838 31 27.152 31H4.8482C3.01633 31 1.51758 29.5013 1.51758 27.6694V27.5613C2.78758 26.1813 4.89945 25.4956 6.68195 27.0563L8.1332 28.3263V3.87126C8.1332 3.20501 7.95758 2.57814 7.64945 2.03376ZM4.38758 0.99939C5.96633 0.99939 7.25758 2.29251 7.25758 3.87126V26.3981C5.55133 24.9044 3.22383 24.9044 1.51758 26.3981V3.87126C1.51758 2.29251 2.80883 0.99939 4.38758 0.99939ZM18.7488 16.955H10.4276V27.5244C10.4276 27.76 10.6226 27.9569 10.8601 27.9569H18.7495V16.955H18.7488ZM10.8595 4.20439H28.3826C28.6251 4.20439 28.8201 4.39939 28.8201 4.64189V27.5244C28.8201 28.2438 28.2338 28.83 27.5145 28.83H9.98945C9.7482 28.83 9.55195 28.635 9.55195 28.3925V5.51002C9.55195 4.79064 10.1382 4.20439 10.8595 4.20439ZM18.7488 5.07751H10.8595C10.622 5.07751 10.427 5.27439 10.427 5.51002V9.27314H18.7482V5.07814L18.7488 5.07751ZM10.4276 10.1481V16.0794H19.1863C19.4288 16.0794 19.6238 16.2763 19.6238 16.5169V21.945H27.9451V12.9719H19.1863C18.9451 12.9719 18.7488 12.775 18.7488 12.5344V10.1481H10.4276ZM19.6245 27.9569H27.5157C27.7513 27.9569 27.9463 27.76 27.9463 27.5244V22.8206H19.6251V27.9569H19.6245ZM27.9457 5.51002C27.9457 5.27439 27.7507 5.07939 27.517 5.07751H19.6245V12.0969H27.9457V5.51002Z" fill="#14293E"></path>
</symbol>
<symbol viewBox="0 0 64 64" fill="none" id="PdfDoc">
<path d="M19.9222 41.6162H52.6872C52.9194 41.6162 53.1421 41.7085 53.3064 41.8727C53.4706 42.0369 53.5628 42.2596 53.5628 42.4919C53.5628 42.7241 53.4706 42.9468 53.3064 43.111C53.1421 43.2752 52.9194 43.3675 52.6872 43.3675H19.9222C19.8072 43.3675 19.6933 43.3448 19.5871 43.3008C19.4809 43.2568 19.3843 43.1923 19.303 43.111C19.2217 43.0297 19.1572 42.9332 19.1132 42.827C19.0692 42.7207 19.0466 42.6069 19.0466 42.4919C19.0466 42.3769 19.0692 42.263 19.1132 42.1568C19.1572 42.0505 19.2217 41.954 19.303 41.8727C19.3843 41.7914 19.4809 41.7269 19.5871 41.6829C19.6933 41.6389 19.8072 41.6162 19.9222 41.6162ZM52.6872 48.1787H19.9222C19.69 48.1787 19.4672 48.271 19.303 48.4352C19.1388 48.5994 19.0466 48.8221 19.0466 49.0544C19.0466 49.2866 19.1388 49.5093 19.303 49.6735C19.4672 49.8377 19.69 49.93 19.9222 49.93H52.6872C52.9194 49.93 53.1421 49.8377 53.3064 49.6735C53.4706 49.5093 53.5628 49.2866 53.5628 49.0544C53.5628 48.8221 53.4706 48.5994 53.3064 48.4352C53.1421 48.271 52.9194 48.1787 52.6872 48.1787ZM14.1747 23.6094H11.5062V26.0896H14.1743C14.5032 26.0896 14.8186 25.959 15.0512 25.7264C15.2838 25.4938 15.4144 25.1784 15.4144 24.8495C15.4144 24.5206 15.2838 24.2052 15.0512 23.9726C14.8186 23.74 14.5032 23.6094 14.1743 23.6094H14.1747ZM52.6872 54.7412H19.9222C19.8073 54.7412 19.6935 54.7639 19.5873 54.8078C19.4812 54.8518 19.3847 54.9163 19.3035 54.9975C19.2222 55.0788 19.1578 55.1752 19.1138 55.2814C19.0698 55.3876 19.0472 55.5013 19.0472 55.6162C19.0472 55.7312 19.0698 55.8449 19.1138 55.9511C19.1578 56.0573 19.2222 56.1537 19.3035 56.235C19.3847 56.3162 19.4812 56.3807 19.5873 56.4246C19.6935 56.4686 19.8073 56.4912 19.9222 56.4912H52.6872C52.9193 56.4912 53.1418 56.3991 53.3059 56.235C53.47 56.0709 53.5622 55.8483 53.5622 55.6162C53.5622 55.3842 53.47 55.1616 53.3059 54.9975C53.1418 54.8334 52.9193 54.7412 52.6872 54.7412ZM23.7449 28.3681V25.5625C23.7439 25.0444 23.5374 24.5479 23.1707 24.1819C22.804 23.8158 22.3072 23.6102 21.7891 23.61H19.8331V30.3246H21.7891C22.3077 30.324 22.805 30.1177 23.1716 29.7509C23.5383 29.3841 23.7445 28.8868 23.7449 28.3681ZM60.1034 18.79V58.6312C60.1013 60.0551 59.5345 61.42 58.5273 62.4265C57.5201 63.433 56.1548 63.9988 54.7309 64H17.8772C16.4534 63.9988 15.0883 63.4329 14.0813 62.4264C13.0744 61.4199 12.5078 60.055 12.5059 58.6312V36.0187H5.76594C5.27086 36.0181 4.79626 35.8211 4.44618 35.471C4.09611 35.1209 3.89913 34.6463 3.89844 34.1512V19.7825C3.8989 19.2873 4.0958 18.8126 4.44593 18.4625C4.79605 18.1124 5.27079 17.9155 5.76594 17.915H12.5059V5.37125C12.5075 3.94718 13.0739 2.58189 14.0809 1.57492C15.0878 0.567952 16.4531 0.00155507 17.8772 0L41.3134 0C41.5454 0.000474693 41.7678 0.0925763 41.9322 0.25625L59.8472 18.1712C60.0109 18.3356 60.103 18.558 60.1034 18.79ZM14.1743 27.84C14.567 27.84 14.9559 27.7626 15.3188 27.6124C15.6816 27.4621 16.0113 27.2418 16.289 26.9641C16.5667 26.6864 16.787 26.3567 16.9373 25.9938C17.0876 25.631 17.1649 25.2421 17.1649 24.8494C17.1649 24.4566 17.0876 24.0678 16.9373 23.7049C16.787 23.3421 16.5667 23.0124 16.289 22.7347C16.0113 22.457 15.6816 22.2367 15.3188 22.0864C14.9559 21.9361 14.567 21.8587 14.1743 21.8587H10.6309C10.3989 21.8587 10.1763 21.9509 10.0122 22.115C9.84813 22.2791 9.75594 22.5017 9.75594 22.7337V31.1989C9.75594 31.3138 9.77857 31.4276 9.82254 31.5337C9.86652 31.6399 9.93097 31.7363 10.0122 31.8176C10.0935 31.8988 10.1899 31.9633 10.2961 32.0073C10.4022 32.0512 10.516 32.0739 10.6309 32.0739C10.7458 32.0739 10.8596 32.0512 10.9658 32.0073C11.0719 31.9633 11.1684 31.8988 11.2497 31.8176C11.3309 31.7363 11.3954 31.6399 11.4393 31.5337C11.4833 31.4276 11.5059 31.3138 11.5059 31.1989V27.8401L14.1743 27.84ZM58.3534 19.6663H43.8109C42.9165 19.6651 42.059 19.3093 41.4266 18.6769C40.7941 18.0444 40.4383 17.1869 40.4372 16.2925V1.75H17.8772C16.9172 1.75126 15.9968 2.13318 15.318 2.81203C14.6391 3.49087 14.2572 4.41122 14.2559 5.37125V17.915H37.8122C38.3073 17.9155 38.7821 18.1124 39.1322 18.4625C39.4823 18.8126 39.6792 19.2873 39.6797 19.7825V34.1512C39.679 34.6463 39.482 35.1209 39.1319 35.471C38.7819 35.8211 38.3073 36.0181 37.8122 36.0187H14.2559V58.6312C14.2576 59.5909 14.6397 60.5108 15.3186 61.1891C15.9974 61.8675 16.9175 62.249 17.8772 62.25H54.7309C55.6908 62.2493 56.6113 61.868 57.2904 61.1896C57.9695 60.5112 58.3518 59.5911 58.3534 58.6312V19.6663ZM18.9578 32.075H21.7891C22.7717 32.0738 23.7137 31.683 24.4085 30.9881C25.1034 30.2933 25.4942 29.3512 25.4953 28.3686V25.5625C25.4938 24.5803 25.1027 23.6388 24.4079 22.9446C23.7131 22.2504 22.7713 21.8602 21.7891 21.8595H18.9578C18.7257 21.8595 18.5032 21.9517 18.3391 22.1158C18.175 22.2799 18.0828 22.5024 18.0828 22.7345V31.1996C18.0828 31.3146 18.1054 31.4284 18.1493 31.5346C18.1933 31.6408 18.2577 31.7373 18.339 31.8186C18.4202 31.8999 18.5167 31.9644 18.6229 32.0084C18.7291 32.0524 18.8429 32.075 18.9578 32.075ZM28.1634 26.0896V23.6094H32.9469C33.179 23.6094 33.4016 23.5172 33.5657 23.3531C33.7298 23.189 33.8219 22.9664 33.8219 22.7344C33.8219 22.5023 33.7298 22.2798 33.5657 22.1157C33.4016 21.9516 33.179 21.8594 32.9469 21.8594H27.2884C27.0564 21.8594 26.8338 21.9516 26.6697 22.1157C26.5056 22.2798 26.4134 22.5023 26.4134 22.7344V31.1995C26.4134 31.4316 26.5056 31.6541 26.6697 31.8182C26.8338 31.9823 27.0564 32.0745 27.2884 32.0745C27.5205 32.0745 27.7431 31.9823 27.9072 31.8182C28.0712 31.6541 28.1634 31.4316 28.1634 31.1995V27.8401H32.1072C32.3393 27.8401 32.5618 27.7479 32.7259 27.5838C32.89 27.4197 32.9822 27.1972 32.9822 26.9651C32.9822 26.7331 32.89 26.5105 32.7259 26.3464C32.5618 26.1823 32.3393 26.0901 32.1072 26.0901L28.1634 26.0896Z" fill="#9FBAC7"></path>
</symbol>
<symbol fill="currentColor" viewBox="0 0 256 256" id="Messenger">
  <path d="M128,20A108.03081,108.03081,0,0,0,32.51758,178.50735l-8.1001,28.35009a20.00035,20.00035,0,0,0,24.72461,24.7251l28.35107-8.09961A108.00773,108.00773,0,1,0,128,20Zm0,192a83.87208,83.87208,0,0,1-42.86328-11.74267,11.997,11.997,0,0,0-9.43067-1.22461l-26.23388,7.49511,7.49512-26.2334a12.00059,12.00059,0,0,0-1.22461-9.43017A84.01087,84.01087,0,1,1,128,212Zm56.48535-91.51465-32,32a12.00033,12.00033,0,0,1-16.9707,0L112,128.97072,88.48535,152.48537a12.0001,12.0001,0,1,1-16.9707-16.9707l32-32a11.99975,11.99975,0,0,1,16.9707,0L144,127.02932l23.51465-23.51465a12.0001,12.0001,0,0,1,16.9707,16.9707Z"></path>
</symbol>
<symbol viewBox="0 0 16 16" fill="none" id="Mail">
<path d="M14.6667 5.73899V11.167C14.6667 11.7204 14.455 12.2529 14.0749 12.6551C13.6948 13.0574 13.1752 13.299 12.6227 13.3303L12.5 13.3337H3.50004C2.94662 13.3337 2.41415 13.122 2.01189 12.7419C1.60962 12.3618 1.36804 11.8422 1.33671 11.2897L1.33337 11.167V5.73899L7.76804 9.10966C7.83962 9.14715 7.91923 9.16674 8.00004 9.16674C8.08085 9.16674 8.16046 9.14715 8.23204 9.10966L14.6667 5.73899ZM3.50004 2.66699H12.5C13.0371 2.66693 13.555 2.86632 13.9534 3.2265C14.3518 3.58668 14.6022 4.08198 14.656 4.61633L8.00004 8.10299L1.34404 4.61633C1.39572 4.1032 1.62874 3.62534 2.00121 3.26863C2.37367 2.91193 2.86116 2.69978 3.37604 2.67033L3.50004 2.66699Z" fill="white"></path>
</symbol>
<symbol viewBox="0 0 50 100" fill="none" id="Logo">
<g clip-path="url(#clip0_1313_315)">
<path d="M15.8551 37.167L14.1875 37.7605V16.9247L15.8551 16.4033V37.167Z" fill="currentColor"></path>
<path d="M35.0723 37.1661L36.7398 37.9257V20.1082L35.0723 19.5879V37.1661Z" fill="currentColor"></path>
<path d="M27.1388 36.9902L28.8063 36.5347V7.36997L27.1388 6.84863V36.9902Z" fill="currentColor"></path>
<path d="M49.4257 42.0567C48.1301 42.0567 47.5185 41.7527 46.8103 41.3995C46.0033 40.9994 45.0891 40.5449 43.3459 40.5449C41.6027 40.5449 40.6853 41.0004 39.8783 41.4016C39.1712 41.7527 38.5607 42.0567 37.2651 42.0567C35.9695 42.0567 35.3579 41.7527 34.6507 41.4006C33.8438 40.9994 32.9285 40.5449 31.1821 40.5449C31.1779 40.5449 31.1737 40.5449 31.1685 40.5449C31.1643 40.5449 31.1601 40.5449 31.1548 40.5449C29.4084 40.5449 28.4943 41.0004 27.6873 41.4016C26.9822 41.7516 26.3738 42.0546 25.0866 42.0567C23.8005 42.0546 23.19 41.7516 22.4828 41.4006C21.6758 40.9994 20.7595 40.5449 19.0142 40.5449C19.01 40.5449 19.0058 40.5449 19.0016 40.5449C18.9974 40.5449 18.9932 40.5449 18.989 40.5449C17.2426 40.5449 16.3284 41.0004 15.5214 41.4016C14.8142 41.7537 14.2027 42.0567 12.9071 42.0567C11.6115 42.0567 10.9989 41.7527 10.2907 41.4006C9.48367 40.9994 8.56739 40.5449 6.82206 40.5449C5.07672 40.5449 4.1594 40.9994 3.35241 41.4016C2.64418 41.7537 2.03263 42.0567 0.73598 42.0567H0.160156V43.9571H0.734929C2.48237 43.9571 3.39759 43.5027 4.20563 43.1004C4.91386 42.7483 5.52541 42.4443 6.82101 42.4443C8.11661 42.4443 8.72816 42.7483 9.43638 43.1004C10.153 43.4567 10.9569 43.8547 12.3512 43.9394V43.9561H12.926C14.6734 43.9561 15.5887 43.5016 16.3967 43.0994C17.1028 42.7483 17.7123 42.4454 19.0005 42.4443C20.2867 42.4464 20.8972 42.7494 21.6033 43.1004C22.4103 43.5016 23.3255 43.9571 25.0719 43.9571C25.0761 43.9571 25.0803 43.9571 25.0845 43.9571C25.0887 43.9571 25.0929 43.9571 25.0982 43.9571C26.8445 43.9571 27.7598 43.5016 28.5668 43.1004C29.2718 42.7504 29.8813 42.4474 31.1664 42.4454C32.4525 42.4474 33.062 42.7504 33.767 43.1015C34.574 43.5027 35.4882 43.9571 37.2335 43.9571H37.8083V43.9404C39.2079 43.8568 40.0128 43.4577 40.7326 43.1004C41.4398 42.7483 42.0503 42.4443 43.3448 42.4443C44.6394 42.4443 45.2509 42.7483 45.9581 43.1004C46.7651 43.5016 47.6793 43.9561 49.4246 43.9561H49.9994V42.0557H49.4246L49.4257 42.0567Z" fill="currentColor"></path>
<path d="M46.8103 46.1427C46.0033 45.7426 45.0891 45.2881 43.3459 45.2881C41.6027 45.2881 40.6853 45.7436 39.8783 46.1448C39.1712 46.4958 38.5607 46.7999 37.2651 46.7999C35.9695 46.7999 35.3579 46.4958 34.6507 46.1438C33.8437 45.7426 32.9285 45.2881 31.1821 45.2881C31.1779 45.2881 31.1737 45.2881 31.1685 45.2881C31.1643 45.2881 31.1601 45.2881 31.1548 45.2881C29.4084 45.2881 28.4943 45.7436 27.6873 46.1448C26.9822 46.4948 26.3738 46.7978 25.0866 46.7999C23.8004 46.7978 23.1899 46.4948 22.4828 46.1438C21.6758 45.7426 20.7595 45.2881 19.0142 45.2881C19.01 45.2881 19.0058 45.2881 19.0016 45.2881C18.9974 45.2881 18.9932 45.2881 18.989 45.2881C17.2426 45.2881 16.3284 45.7436 15.5214 46.1448C14.8142 46.4969 14.2027 46.7999 12.9071 46.7999C11.6115 46.7999 10.9989 46.4958 10.2907 46.1438C9.48366 45.7426 8.56739 45.2881 6.82205 45.2881C5.07672 45.2881 4.15939 45.7426 3.3524 46.1448C2.64418 46.4969 2.03263 46.7999 0.735972 46.7999H0.160149V48.7003H0.734922C2.48236 48.7003 3.39758 48.2458 4.20563 47.8436C4.91385 47.4915 5.5254 47.1875 6.821 47.1875C8.11661 47.1875 8.72816 47.4915 9.43638 47.8436C10.153 48.1999 10.9568 48.5979 12.3512 48.6825V48.6993H12.926C14.6734 48.6993 15.5887 48.2448 16.3967 47.8425C17.1028 47.4915 17.7123 47.1885 19.0005 47.1875C20.2867 47.1896 20.8972 47.4925 21.6033 47.8436C22.4103 48.2448 23.3255 48.7003 25.0719 48.7003C25.0761 48.7003 25.0803 48.7003 25.0845 48.7003C25.0887 48.7003 25.0929 48.7003 25.0982 48.7003C26.8445 48.7003 27.7598 48.2448 28.5668 47.8436C29.2718 47.4936 29.8813 47.1906 31.1664 47.1885C32.4525 47.1906 33.062 47.4936 33.767 47.8446C34.574 48.2458 35.4882 48.7003 37.2335 48.7003H37.8083V48.6836C39.2079 48.6 40.0128 48.2009 40.7326 47.8436C41.4398 47.4915 42.0503 47.1875 43.3448 47.1875C44.6394 47.1875 45.2509 47.4915 45.9581 47.8436C46.7651 48.2448 47.6793 48.6993 49.4246 48.6993H49.9994V46.7988H49.4246C48.129 46.7988 47.5175 46.4948 46.8092 46.1417L46.8103 46.1427Z" fill="currentColor"></path>
<path d="M10.2139 35.6462C9.42377 35.2544 8.5138 34.8282 6.82205 34.8282C5.13031 34.8282 4.15939 35.2826 3.3524 35.6849C2.64418 36.037 2.03263 36.3399 0.735972 36.3399H0.160149V38.2404H0.734922C2.48236 38.2404 3.39758 37.7859 4.20563 37.3837C4.91385 37.0316 5.5254 36.7276 6.82205 36.7276C8.11871 36.7276 8.72921 37.0316 9.43743 37.3837C9.6791 37.5038 9.93339 37.6281 10.2139 37.7441C10.6752 37.9353 11.2164 38.1004 11.9225 38.1829V15.8259L18.0611 13.2349V36.5343H19.7529V10.4297L10.2139 14.4562V35.6462Z" fill="currentColor"></path>
<path d="M49.4257 36.3402C48.1301 36.3402 47.5185 36.0361 46.8103 35.683C46.0043 35.2818 45.0902 34.8284 43.3448 34.8284C42.4832 34.8284 41.8254 34.9402 41.2811 35.1V17.782L32.8035 13.9591V4.87384L23.1406 0V36.5345L24.97 36.99V3.13222L30.9562 6.24458V27.0637H30.9657V36.5355H32.7951V27.0637H32.8035V16.1678L39.4339 19.1548V37.9355C39.9403 37.7757 40.3501 37.5761 40.7316 37.386C40.9165 37.294 41.0951 37.2063 41.2811 37.1248C41.8055 36.896 42.3886 36.7299 43.3448 36.7299C44.6404 36.7299 45.2509 37.0339 45.9592 37.386C46.7662 37.7872 47.6803 38.2417 49.4257 38.2417H50.0004V36.3412H49.4257V36.3402Z" fill="currentColor"></path>
<path d="M0.109367 67.5684H4.303C5.01753 67.5684 5.58495 67.7773 6.00421 68.1942C6.42347 68.611 6.63362 69.1752 6.63362 69.8857V71.2752C6.63362 71.8937 6.43082 72.4338 6.02732 72.8967C6.43082 73.3595 6.63362 73.9007 6.63362 74.5182V97.6838C6.63362 98.3942 6.42347 98.9584 6.00421 99.3753C5.58495 99.7921 5.01753 100.001 4.303 100.001H0.109367V67.5684ZM1.5069 68.9579V72.2009H4.303C4.92401 72.2009 5.23504 71.8927 5.23504 71.2742V69.8846C5.23504 69.2672 4.92401 68.9579 4.303 68.9579H1.5069ZM1.5069 73.5915V98.6105H4.303C4.92401 98.6105 5.23504 98.3023 5.23504 97.6838V74.5182C5.23504 73.9007 4.92401 73.5915 4.303 73.5915H1.5069Z" fill="currentColor"></path>
<path d="M22.0107 67.5685V68.958H16.885V72.201H20.6131V73.5905H16.885V98.6096H22.0107V99.9991H15.4864V67.5664H22.0107V67.5685Z" fill="currentColor"></path>
<path d="M29.467 100L30.958 95.2276C29.9629 94.9194 29.467 94.1933 29.467 93.0503V67.5674H30.8645V93.0503C30.8645 93.6688 31.1745 93.977 31.7965 93.977H33.6606V67.5674H35.0581V93.977H36.9222C37.5432 93.977 37.8542 93.6688 37.8542 93.0503V67.5674H39.2518V93.0503C39.2518 94.1933 38.7548 94.9194 37.7607 95.2276L39.2518 100H37.8542L36.4094 95.3666H35.0581V100H33.6606V95.3666H32.3093L30.8645 100H29.467Z" fill="currentColor"></path>
<path d="M48.1056 100V67.5674H49.5031V100H48.1056Z" fill="currentColor"></path>
<path d="M7.2619 57.6274C8.07625 58.3598 8.48395 59.3137 8.48395 60.4869C8.48395 61.6602 8.07625 62.6141 7.2619 63.3465C6.44755 64.0789 5.44091 64.4456 4.24198 64.4456C3.04305 64.4456 2.03641 64.0799 1.22206 63.3465C0.407708 62.6141 7.62939e-06 61.6602 7.62939e-06 60.4869C7.62939e-06 59.3137 0.407708 58.3598 1.22206 57.6274C2.03641 56.895 3.04305 56.5283 4.24198 56.5283C5.44091 56.5283 6.44755 56.895 7.2619 57.6274ZM2.20348 58.4737C1.66864 58.9699 1.40069 59.6407 1.40069 60.4869C1.40069 61.3332 1.66864 62.005 2.20348 62.5002C2.73937 62.9965 3.41817 63.2441 4.24198 63.2441C5.06579 63.2441 5.74774 62.9965 6.28784 62.5002C6.82793 62.005 7.09798 61.3332 7.09798 60.4869C7.09798 59.6407 6.82793 58.9699 6.28784 58.4737C5.74774 57.9774 5.06579 57.7298 4.24198 57.7298C3.41817 57.7298 2.73832 57.9774 2.20348 58.4737Z" fill="currentColor"></path>
<path d="M12.3143 59.5999H15.2386C15.8428 59.5999 16.1444 59.345 16.1444 58.8352C16.1444 58.1164 15.3899 57.757 13.8789 57.757C13.2285 57.757 12.68 57.8165 12.2313 57.9346C11.7826 58.0526 11.3161 58.2626 10.8306 58.5625L10.2401 57.5386C11.3014 56.8658 12.5098 56.5283 13.8642 56.5283C15.0537 56.5283 15.9647 56.7237 16.5962 57.1155C17.2183 57.4979 17.5293 58.0485 17.5293 58.7673C17.5293 59.3408 17.3002 59.764 16.8432 60.0367C17.6396 60.3459 18.0379 60.9508 18.0379 61.8525C18.0379 62.5807 17.7037 63.1898 17.0354 63.6819C16.3493 64.1917 15.2828 64.4466 13.8369 64.4466C12.391 64.4466 11.0135 64.0872 9.89649 63.3684L10.5417 62.3174C11.5578 62.9181 12.6831 63.218 13.9189 63.218C15.7314 63.218 16.6372 62.7499 16.6372 61.8117C16.6372 61.4837 16.5321 61.2381 16.3209 61.0741C16.1097 60.9101 15.763 60.8286 15.2775 60.8286H12.3122V59.5999H12.3143Z" fill="currentColor"></path>
<path d="M19.9199 56.7061H26.7153V57.9619H21.3206V59.7777H26.1804V61.0199H21.3206V62.9851H26.9212V64.2545H19.9199V56.7061Z" fill="currentColor"></path>
<path d="M28.953 56.7061H33.4146C34.3025 56.7061 35.0391 56.9767 35.6244 57.5179C36.2097 58.0591 36.5028 58.7622 36.5028 59.6263C36.5028 60.4903 36.2097 61.1871 35.6244 61.7147C35.0391 62.2424 34.3015 62.5067 33.4146 62.5067H30.3537V64.2535H28.953V56.7051V56.7061ZM30.3527 57.9755V61.2373H33.3589C33.8896 61.2373 34.3151 61.0942 34.6356 60.8068C34.9561 60.5206 35.1158 60.1267 35.1158 59.6263C35.1158 59.1258 34.9561 58.7142 34.6356 58.4185C34.3151 58.1228 33.8896 57.9745 33.3589 57.9745H30.3527V57.9755Z" fill="currentColor"></path>
<path d="M38.3965 56.7061H39.7972V59.7223H44.6707V56.7061H46.0577V64.2545H44.6707V60.9645H39.7972V64.2545H38.3965V56.7061Z" fill="currentColor"></path>
<path d="M48.2129 56.7061H49.6136V64.2545H48.2129V56.7061Z" fill="currentColor"></path>
</g>
<defs>
<clipPath id="clip0_1313_315">
<rect width="50" height="100" fill="currentColor"></rect>
</clipPath>
</defs>
</symbol>
<symbol viewBox="0 0 32 32" fill="none" id="Location">
<g clip-path="url(#clip0_893_9688)">
<path d="M16.0098 0C9.17965 0 3 5.23644 3 13.335C3 18.5064 6.98425 24.5885 14.9365 31.5975C15.5545 32.1342 16.4814 32.1342 17.0994 31.5975C25.0353 24.5885 29.0196 18.5064 29.0196 13.335C29.0196 5.23644 22.8399 0 16.0098 0ZM16.0098 16.2622C14.2209 16.2622 12.7573 14.7986 12.7573 13.0098C12.7573 11.2209 14.2209 9.75735 16.0098 9.75735C17.7986 9.75735 19.2622 11.2209 19.2622 13.0098C19.2622 14.7986 17.7986 16.2622 16.0098 16.2622Z" fill="#14293E"></path>
</g>
<defs>
<clipPath id="clip0_893_9688">
<rect width="32" height="32" fill="white"></rect>
</clipPath>
</defs>
</symbol>
<symbol viewBox="0 0 32 32" fill="none" id="Keys">
<path d="M21.7745 3.51404C21.921 3.98354 22 4.48254 22 5.00004V6.07104C22.86 6.29454 23.5 7.07104 23.5 8.00004C23.5 9.10304 22.603 10 21.5 10C20.397 10 19.5 9.10304 19.5 8.00004C19.5 7.07104 20.14 6.29454 21 6.07104V5.00004C21 4.48454 20.8985 3.99254 20.72 3.53954C16.3975 3.93504 13 7.57604 13 12C13 15.165 14.716 18.007 17.5 19.4915V28C17.5 28.4005 17.656 28.777 17.9395 29.0605L20.4395 31.5605C20.7225 31.844 21.099 32 21.5 32C21.901 32 22.2775 31.8435 22.5605 31.5605L25.0605 29.0605C25.344 28.777 25.5 28.4005 25.5 28V27H23.5C23.224 27 23 26.776 23 26.5C23 26.224 23.224 26 23.5 26H25.5V24H23.5C23.224 24 23 23.776 23 23.5C23 23.224 23.224 23 23.5 23H25.5V21H23.5C23.224 21 23 20.776 23 20.5C23 20.224 23.224 20 23.5 20H25.5V19.4915C28.284 18.007 30 15.165 30 12C30 7.40604 26.334 3.66054 21.7745 3.51404Z" fill="#14293E"></path>
<path d="M21.7745 3.514C21.14 1.48 19.2395 0 17 0C14.243 0 12 2.243 12 5C12 5.548 12.092 6.0835 12.267 6.599C11.656 6.958 11.0855 7.3935 10.571 7.9085C8.333 10.1465 7.5365 13.3695 8.456 16.3875L2.4395 22.404C2.156 22.687 2 23.0635 2 23.4645V27C2 27.4005 2.156 27.777 2.4395 28.0605C2.723 28.344 3.0995 28.5 3.5 28.5H7.0355C7.436 28.5 7.813 28.344 8.096 28.0605L8.803 27.3535L7.5175 26.068C7.322 25.8725 7.322 25.556 7.5175 25.361C7.713 25.1655 8.029 25.1655 8.2245 25.361L9.51 26.6465L10.9245 25.232L9.639 23.9465C9.4435 23.751 9.4435 23.4345 9.639 23.2395C9.8345 23.044 10.1505 23.044 10.346 23.2395L11.6315 24.525L13.046 23.1105L11.7605 21.825C11.565 21.6295 11.565 21.313 11.7605 21.118C11.956 20.9225 12.272 20.9225 12.4675 21.118L13.753 22.4035L14.113 22.0435C14.887 22.2785 15.6885 22.3985 16.5 22.4075V20.069C13.709 18.345 12 15.307 12 12C12 9.586 12.9125 7.3865 14.4005 5.709C13.979 5.8205 13.569 5.967 13.171 6.1405C13.06 5.7705 13 5.389 13 5C13 2.7945 14.7945 1 17 1C18.69 1 20.135 2.055 20.72 3.5395C20.9775 3.516 21.237 3.5 21.5 3.5C21.593 3.5 21.6825 3.511 21.7745 3.514Z" fill="#14293E"></path>
<path d="M21.5 9C22.0523 9 22.5 8.55228 22.5 8C22.5 7.44772 22.0523 7 21.5 7C20.9477 7 20.5 7.44772 20.5 8C20.5 8.55228 20.9477 9 21.5 9Z" fill="#14293E"></path>
</symbol>
<symbol viewBox="0 0 14 14" fill="none" id="Instagram">
<path d="M6.75195 0.5625C8.36386 0.5625 8.57122 0.569204 9.21191 0.599609C9.86679 0.628515 10.3259 0.735947 10.7314 0.892578C11.1582 1.05341 11.5468 1.30652 11.8682 1.63184L11.6904 1.81348L11.8711 1.63477C12.2002 1.95702 12.4511 2.3443 12.6143 2.77539C12.7711 3.17909 12.8783 3.63964 12.9072 4.29395C12.9353 4.93306 12.9375 5.14035 12.9375 6.75098C12.9375 8.3634 12.9304 8.56963 12.9023 9.20801C12.8734 9.86341 12.7661 10.3218 12.6094 10.7275C12.2752 11.5917 11.5919 12.2752 10.7275 12.6094C10.3235 12.7664 9.86221 12.8735 9.20703 12.9023C8.56871 12.9305 8.36245 12.9375 6.75 12.9375C5.13751 12.9375 4.93127 12.9305 4.29297 12.9023C3.63778 12.8735 3.17911 12.767 2.77344 12.6104C2.39899 12.4693 2.05396 12.2569 1.75781 11.9873L1.63574 11.8701L1.81348 11.6885L1.63281 11.8662C1.30733 11.5449 1.05298 11.1591 0.889648 10.7275C0.732735 10.3237 0.626527 9.86267 0.597656 9.20801C0.569609 8.56963 0.5625 8.3634 0.5625 6.75098C0.562501 5.13952 0.569198 4.93257 0.599609 4.29199C0.628516 3.63733 0.735968 3.1789 0.892578 2.77344C1.03367 2.39928 1.24518 2.05383 1.51465 1.75781L1.63184 1.63574L1.81348 1.81348L1.63574 1.63281L1.63379 1.63379C1.95627 1.30438 2.34376 1.05289 2.77539 0.889648C3.17914 0.732874 3.64021 0.626532 4.29492 0.597656C4.93337 0.569617 5.13956 0.562501 6.75195 0.5625ZM6.74902 3.81934C5.13114 3.81947 3.8185 5.13203 3.81836 6.75C3.81836 8.36808 5.13106 9.6815 6.74902 9.68164C8.36719 9.68164 9.68066 8.36817 9.68066 6.75C9.68052 5.13195 8.36711 3.81934 6.74902 3.81934ZM10.332 1.86523C9.61272 1.86523 9.0293 2.44844 9.0293 3.16797C9.02935 3.8873 9.61273 4.4707 10.332 4.4707C11.0514 4.47062 11.6347 3.88727 11.6348 3.16797C11.6348 2.44847 11.0514 1.86532 10.332 1.86523Z" fill="currentColor"></path>
</symbol>
<symbol viewBox="0 0 16 16" fill="none" id="Flat">
<path d="M0.307617 11.4951H3.08398V15.6738L3.83203 15.6748L13.5479 15.6933L14.2988 15.6943V8.74022H15.6934V7.98924L15.6885 1.05663L15.6875 0.305649L14.9365 0.307602L5.91504 0.32518L1.06055 0.307602L0.307617 0.304672V11.4951ZM14.1924 7.24022H10.3701V8.74022H12.7988V14.1914L4.58398 14.1758V11.501L5.9082 11.5137L6.66504 11.5195V8.74022H8.05273V7.24022H6.66504V5.8535H5.16504V10.0068L3.83984 9.9951H1.80762V1.80956L5.16504 1.82225V3.54002H6.66504V1.82323L14.1885 1.80858L14.1924 7.24022Z" fill="currentColor"></path>
</symbol>
<symbol viewBox="0 0 14 14" fill="none" id="Facebook">
<path d="M8.89266 2.24156H10.125V0.0950625C9.91239 0.0658125 9.1812 0 8.32965 0C6.55286 0 5.33571 1.11769 5.33571 3.17194V5.0625H3.375V7.46212H5.33571V13.5H7.73964V7.46269H9.62104L9.9197 5.06306H7.73907V3.40987C7.73964 2.71631 7.92637 2.24156 8.89266 2.24156Z" fill="currentColor"></path>
</symbol>
<symbol viewBox="0 0 16 16" fill="none" id="ChevronArrow">
<path d="M7.70703 11.1211C7.89457 11.3086 8.14885 11.4141 8.41406 11.4141C8.67928 11.4141 8.93356 11.3086 9.12109 11.1211L13.8281 6.41406L12.4141 5L8.41406 9L4.41406 5L3 6.41406L7.70703 11.1211Z" fill="currentColor"></path>
</symbol>
<symbol viewBox="0 0 130 79" fill="none" id="CascadeLogo">
<g clip-path="url(#clip0_1054_4780)">
<path fill-rule="evenodd" clip-rule="evenodd" d="M81.6093 78.9977H0V72.4562H77.5646L81.6093 78.9977Z" fill="#FFC200"></path>
<path fill-rule="evenodd" clip-rule="evenodd" d="M81.6093 72.4562H91.1616L95.209 78.9977H85.6539L81.6093 72.4562Z" fill="#FFC200"></path>
<path fill-rule="evenodd" clip-rule="evenodd" d="M95.209 72.4562H104.761L108.806 78.9977H99.2536L95.209 72.4562Z" fill="#FFC200"></path>
<path fill-rule="evenodd" clip-rule="evenodd" d="M108.806 72.4562H130V78.9977H112.853L108.806 72.4562Z" fill="#FFC200"></path>
<path d="M16.8759 67.3532H13.4383L8.25606 59.9203H3.36639V67.3532H0.314453V50.5238H3.36639V57.3032H8.47483L13.2196 50.5238H16.6817L10.8458 58.8045L16.8759 67.3505V67.3532Z" fill="#393A3A"></path>
<path d="M39.1035 67.3532H35.9805L34.4791 63.0925H24.7928L23.2914 67.3532H20.193L26.1 50.5238H33.2184L39.1035 67.3532ZM28.3042 53.1382L25.7144 60.5H33.5849L30.9951 53.1382H28.3069H28.3042Z" fill="#393A3A"></path>
<path d="M52.1809 67.7143C48.7434 67.7143 46.2193 66.995 44.614 65.5593C43.0087 64.1236 42.2047 61.8866 42.2047 58.8511C42.2047 55.8155 43.0279 53.6907 44.6742 52.2768C46.3205 50.863 48.8883 50.1574 52.3751 50.1574C58.2657 50.1574 61.4215 52.2631 61.8427 56.4773H58.84C58.6622 55.1865 58.0578 54.2458 57.0241 53.6578C55.9904 53.0699 54.4425 52.7745 52.3751 52.7745C49.7935 52.7745 47.9613 53.234 46.8783 54.1556C45.7954 55.0772 45.2567 56.6496 45.2567 58.8784C45.2567 61.1072 45.7899 62.7453 46.8537 63.697C47.9503 64.6486 49.7443 65.1245 52.2302 65.1245C56.5565 65.1245 58.8236 63.7188 59.0341 60.9103H62.0861C61.8919 63.1391 60.9512 64.8291 59.2666 65.9832C57.5793 67.1372 55.2192 67.7143 52.1837 67.7143H52.1809Z" fill="#393A3A"></path>
<path d="M83.7778 67.3532H80.3403L75.158 59.9203H70.2684V67.3532H67.2164V50.5238H70.2684V57.3032H75.3768L80.1215 50.5238H83.5837L77.7478 58.8045L83.7778 67.3505V67.3532Z" fill="#393A3A"></path>
<path d="M106.006 67.3532H102.883L101.381 63.0925H91.6949L90.1935 67.3532H87.0951L93.0021 50.5238H100.121L106.006 67.3532ZM95.2063 53.1382L92.6165 60.5H100.487L97.8972 53.1382H95.209H95.2063Z" fill="#393A3A"></path>
<path d="M128.135 50.5239V64.7608H129.781V71.4198H126.707V67.3505H112.834V71.4198H109.76V64.7608H111.357C113.053 63.1145 113.901 60.5466 113.901 57.0598V50.5211H128.138L128.135 50.5239ZM116.975 53.1382V57.0598C116.975 59.9504 116.288 62.5156 114.915 64.7608H125.061V53.1382H116.975Z" fill="#393A3A"></path>
<path d="M3.17766 75.3468H4.38914C5.36817 75.3468 5.86041 75.6941 5.86041 76.3915C5.86041 77.0888 5.3709 77.4553 4.38914 77.4553H2.78113V73.933H5.60062V74.2693H3.17766V75.3496V75.3468ZM3.17766 77.1189H4.38914C4.75559 77.1189 5.02633 77.0588 5.20135 76.9412C5.37637 76.8236 5.46388 76.6349 5.46388 76.3805C5.46388 76.1426 5.37637 75.9676 5.19861 75.8555C5.02086 75.7434 4.75285 75.6887 4.38914 75.6887H3.17766V77.1189Z" fill="#393A3A"></path>
<path d="M13.0035 76.1071L14.0509 73.933H14.4638L13.0582 76.8591C12.957 77.0943 12.823 77.2639 12.6589 77.3705C12.4949 77.4772 12.2788 77.5319 12.0163 77.5319C11.8166 77.5319 11.6197 77.4991 11.4256 77.4307V77.0806C11.6197 77.1599 11.8166 77.1982 12.0163 77.1982C12.1831 77.1982 12.3198 77.1627 12.4265 77.0916C12.5331 77.0205 12.6234 76.9056 12.7 76.7443L12.8422 76.4489H12.1804L10.8868 73.9357H11.3053L12.4237 76.1098H13.0035V76.1071Z" fill="#393A3A"></path>
<path d="M22.7719 73.933V77.1189H23.0728V78.314H22.6872V77.4526H19.4958V78.314H19.1074V77.1189H19.4082C19.5805 76.9466 19.7173 76.7087 19.8184 76.4052C19.9196 76.1016 19.9689 75.7762 19.9689 75.4234V73.933H22.7719ZM20.3544 74.2693V75.4234C20.3544 75.7379 20.3107 76.0469 20.2232 76.3505C20.1357 76.6513 20.0181 76.9083 19.8731 77.1189H22.3836V74.2693H20.3572H20.3544Z" fill="#393A3A"></path>
<path d="M28.7691 77.4553H28.3862V73.933H28.7691V77.4553Z" fill="#393A3A"></path>
<path d="M37.0334 75.4507V73.933H37.4217V77.4553H37.0334V75.7899H34.6816V77.4553H34.2987V73.933H34.6816V75.4507H37.0334Z" fill="#393A3A"></path>
<path d="M45.3716 75.5629V75.6176C45.5739 75.675 45.7325 75.7789 45.8474 75.9293C45.9623 76.0797 46.017 76.2602 46.017 76.4708C46.017 76.7825 45.9103 77.0259 45.697 77.1955C45.4837 77.3678 45.1801 77.4525 44.7918 77.4525H42.9486V73.9302H44.6742C45.0516 73.9302 45.3415 74.0068 45.5493 74.1572C45.7572 74.3076 45.8583 74.5237 45.8583 74.7999C45.8583 75.1636 45.697 75.4152 45.3688 75.5574L45.3716 75.5629ZM43.3315 74.2693V75.4507H44.7617C44.9887 75.4507 45.1637 75.3988 45.2841 75.2921C45.4044 75.1882 45.4645 75.0351 45.4645 74.8382C45.4645 74.6549 45.3962 74.5155 45.2567 74.417C45.1172 74.3186 44.9176 74.2693 44.6551 74.2693H43.3315ZM43.3315 75.7898V77.1189H44.7727C45.0543 77.1189 45.2676 77.0615 45.4126 76.9466C45.5575 76.8318 45.6286 76.6649 45.6286 76.4489C45.6286 76.2329 45.5521 76.077 45.3962 75.9621C45.2403 75.8473 45.0215 75.7926 44.7371 75.7926H43.3315V75.7898Z" fill="#393A3A"></path>
<path d="M54.1445 77.4553H51.377V73.933H54.1089V74.2693H51.7571V75.4507H53.9394V75.7926H51.7571V77.1217H54.1445V77.458V77.4553Z" fill="#393A3A"></path>
<path d="M61.356 77.5318C60.6641 77.5318 60.15 77.3787 59.8136 77.0751C59.4772 76.7688 59.3104 76.3039 59.3104 75.6804C59.3104 75.0569 59.4827 74.6139 59.8273 74.3103C60.1719 74.0095 60.6997 73.8564 61.4079 73.8564C62.562 73.8564 63.2019 74.2666 63.3332 75.087H62.9558C62.8464 74.4908 62.3323 74.19 61.4079 74.19C60.8173 74.19 60.3852 74.3076 60.109 74.5455C59.8328 74.7834 59.696 75.1608 59.696 75.6804C59.696 76.2 59.8328 76.5802 60.1035 76.8263C60.3742 77.0697 60.7981 77.1927 61.3697 77.1927C62.387 77.1927 62.9312 76.8646 63.0023 76.2055H63.3851C63.3414 76.6403 63.1472 76.9685 62.8026 77.1927C62.4581 77.417 61.9768 77.5291 61.356 77.5291V77.5318Z" fill="#393A3A"></path>
<path d="M70.0796 77.4553H69.6968V74.2693H68.3322V73.933H71.447V74.2693H70.0769V77.4553H70.0796Z" fill="#393A3A"></path>
<path fill-rule="evenodd" clip-rule="evenodd" d="M80.302 30.0818L83.5727 33.3525V3.5688L83.6739 3.47035L83.5727 3.36917V0.0984496H80.302L80.2036 0L80.1051 0.0984496H80.0422L76.7715 3.36917H76.8344L54.9102 25.2934V13.7447H50.0042V37.1374L80.302 6.83951V30.0818Z" fill="#FFC200"></path>
<path fill-rule="evenodd" clip-rule="evenodd" d="M43.8565 0.0492554H75.4179L72.1444 3.31997H45.4919V38.1329H76.8344L65.9503 27.2487L69.4179 23.7783L80.3021 34.6625V34.657L83.5728 37.9277V37.9332L83.674 38.0317L83.5728 38.1329V41.4036H80.3021L80.2036 41.502L80.1052 41.4036H42.2212V0.0492554H43.8565Z" fill="#393A3A"></path>
</g>
<defs>
<clipPath id="clip0_1054_4780">
<rect width="130" height="78.9976" fill="white"></rect>
</clipPath>
</defs>
</symbol>
<symbol viewBox="0 0 16 16" fill="none" id="Call">
<path d="M4.03223 1.3025C3.15541 0.00935749 0.916477 3.18538 1.00195 4.77906C1.12883 7.08407 2.53287 9.5737 4.47949 11.5203C6.42607 13.4668 8.91569 14.8699 11.2207 14.9968C12.8117 15.0851 15.9914 12.8461 14.6982 11.9666C14.6982 11.9666 14.6893 11.9615 14.6865 11.9587L11.7363 10.1277C11.6964 10.1022 11.3642 9.92993 11.3174 9.92164C10.5619 9.77826 9.8366 10.5275 9.00391 11.0955C8.89913 11.1672 8.72553 11.2282 8.61523 11.1648C7.73014 10.6575 7.18703 10.1995 6.49219 9.50465C5.7974 8.80986 5.33935 8.26939 4.83203 7.3816C4.76883 7.2713 4.83248 7.09763 4.90137 6.99293C5.46936 6.15753 6.21955 5.4349 6.07617 4.67945C6.06754 4.63474 5.89117 4.29906 5.86914 4.26051L4.04102 1.31324C4.04102 1.31324 4.03498 1.30526 4.03223 1.3025Z" fill="currentColor"></path>
</symbol>
<symbol viewBox="0 0 16 16" fill="none" id="Calendar">
<path d="M2.02637 11.9561C2.02648 12.9865 2.89823 13.75 3.88184 13.75L11.6182 13.75C12.6017 13.75 13.4735 12.9865 13.4736 11.9561L13.4736 4.64941C13.4736 3.6189 12.6018 2.8555 11.6182 2.85547L10.5 2.85547L10.5 2.10547C10.5 1.69126 10.1642 1.35547 9.75 1.35547C9.33579 1.35547 9 1.69126 9 2.10547L9 2.85547L6.5 2.85547L6.5 2.10547C6.5 1.69126 6.16421 1.35547 5.75 1.35547C5.33579 1.35547 5 1.69126 5 2.10547L5 2.85547L3.88184 2.85547C2.89817 2.85547 2.02637 3.61888 2.02637 4.64941L2.02637 11.9561ZM11.9736 8.6709L11.9736 11.9561C11.9735 12.0785 11.8552 12.25 11.6182 12.25L3.88184 12.25C3.6448 12.25 3.5265 12.0785 3.52637 11.9561L3.52637 8.6709L11.9736 8.6709ZM3.52637 4.64941C3.52637 4.52693 3.64466 4.35547 3.88184 4.35547L5 4.35547L5 5.10547C5.00011 5.51959 5.33585 5.85547 5.75 5.85547C6.16414 5.85547 6.49989 5.51959 6.5 5.10547L6.5 4.35547L9 4.35547L9 5.10547C9.00011 5.51959 9.33585 5.85547 9.75 5.85547C10.1641 5.85547 10.4999 5.51959 10.5 5.10547L10.5 4.35547L11.6182 4.35547C11.8553 4.35549 11.9736 4.52694 11.9736 4.64941L11.9736 7.1709L3.52637 7.1709L3.52637 4.64941Z" fill="#14293E"></path>
</symbol>
<symbol viewBox="0 0 16 16" fill="none" id="Arrow">
<path d="M5.33333 5.5H12M12 5.5V12.1667M12 5.5L5.33333 12.1667L4 13.5" stroke="currentColor" stroke-width="1.5"></path>
</symbol>
</defs>
</svg>